<svg xmlns="http://www.w3.org/2000/svg" width="1440" height="720">
  <path fill="#FFDA44" d="M0 0h1440v720H0z"/>
  <path fill="#FFFFFF" d="M0,50V370L1440,520V350z"/>
  <path fill="#000000" d="M0,220V370L1440,670V520z"/>
  <g transform="translate(464,104)">
    <path fill="#D80027" d="M272.7 178.1h39c0 7.7-6.7 14-14.4 14h.4a14 14 0 0 1-13.9 13.8 14 14 0 0 1-11.1 13.7v79a72.4 72.4 0 0 0 47-104.8 88.7 88.7 0 0 1-4.8 129h19v11.1h22.3v33.4h-66.8v-11.1h-66.8v11h-66.8V334h22.3v-11.1h19a89 89 0 0 1-4.7-129 72.4 72.4 0 0 0 47 104.8v-79a14 14 0 0 1-11.2-13.7 14 14 0 0 1-14-13.9h.5c-7.6 0-14.3-6.2-14.3-13.9h39v-33.4h33.3z"/>
  </g>
</svg>
