<svg xmlns="http://www.w3.org/2000/svg" width="1000" height="600">
<path fill="#006AC8" d="M0 0h1000v600H0z"/>
<path fill="#D90F19" d="M0 0h1000v52.1H0z"/>
<path fill="#D90F19" d="M0 547.9h1000v52.1H0z"/>
<g transform="translate(244,44)">
<path fill="#AD7D5A" d="M256 356.2a100.2 100.2 0 1 0 0-200.4 100.2 100.2 0 0 0 0 200.4"/>
<path fill="#FFFFFF" d="M256 322.8a66.8 66.8 0 1 0 0-133.6 66.8 66.8 0 0 0 0 133.6"/>
<path fill="#006AC8" d="M256 239.3 219.8 256v27.8l36.2 22.3 36.2-22.3V256z"/>
<path fill="#AD7D5A" d="M219.8 222.6h72.4V256h-72.4z"/>
</g>
</svg>
