<svg xmlns="http://www.w3.org/2000/svg" width="1000" height="600" viewBox="0 0 1000 600">
  <defs>
    <clipPath id="s">
      <rect width="1000" height="600"/>
    </clipPath>
  </defs>
  <g clip-path="url(#s)">
    <g transform="scale(1.953125, 1.171875)">
      <circle cx="256" cy="256" r="256" fill="#006AC8"/><path fill="#D90F19" fill-rule="evenodd" d="M398.8 44.5A255 255 0 0 0 256 1c-52.9 0-102 16-142.8 43.5zM233.2 512a255 255 0 0 1-123-44.5h291.6a255 255 0 0 1-123 44.5z" clip-rule="evenodd"/><path fill="#FFFFFF" d="M256 378.4a122.4 122.4 0 1 0 0-244.8 122.4 122.4 0 0 0 0 244.8"/><path fill="#AD7D5A" d="M256 356.2a100.2 100.2 0 1 0 0-200.4 100.2 100.2 0 0 0 0 200.4"/><path fill="#FFFFFF" d="M256 322.8a66.8 66.8 0 1 0 0-133.6 66.8 66.8 0 0 0 0 133.6"/><path fill="#006AC8" d="M256 239.3 219.8 256v27.8l36.2 22.3 36.2-22.3V256z"/><path fill="#FFE682" d="M219.8 222.6h72.4V256h-72.4z"/>
    </g>
  </g>
</svg>
