<svg xmlns="http://www.w3.org/2000/svg" width="900" height="600">
  <path fill="#FFFFFF" d="M0 0h900v600H0z"/>
  <path fill="#002D62" d="M0 0h390v240H0z"/>
  <path fill="#CE1126" d="M510 0h390v240H510z"/>
  <path fill="#CE1126" d="M0 360h390v240H0z"/>
  <path fill="#002D62" d="M510 360h390v240H510z"/>
  <g transform="translate(194,44)">
    <path fill="#CE1126" d="M208 205.4v53.3a48 48 0 1 0 96 0v-53.3z"/>
    <path fill="#002D62" d="M304 258.7a48 48 0 0 1-48 48V256h48zm-48-53.3V256h-48v-50.6z"/>
    <path fill="#6DA544" fill-rule="evenodd" d="m240.9 245.8-1.5 4.8a17.5 17.5 0 1 0 33.2 0l-1.5-4.8 9.5-3 1.6 4.7a27.5 27.5 0 1 1-52.4 0l1.6-4.8z" clip-rule="evenodd"/>
  </g>
</svg>
