<svg xmlns="http://www.w3.org/2000/svg" width="1440" height="960">
  <!-- Background stripes at full-size proportions -->
  <rect width="1440" height="960" fill="#ED1C24"/>
  <rect width="1440" height="720" fill="#034EA2"/>
  <rect width="1440" height="480" fill="#FD0"/>
  <!-- Emblem from square variant, centered at (720,480): dx=464, dy=224 -->
  <g transform="translate(464,224)">
    <path fill="#FFDD00" d="M256 345a89 89 0 1 0 0-178 89 89 0 0 0 0 178"/>
    <path fill="#034EA2" d="M256 311.7c-30.7 0-55.7-25-55.7-55.7v-33.4a55.7 55.7 0 0 1 111.4 0V256c0 30.7-25 55.7-55.7 55.7"/>
    <path fill="#000000" d="M345 122.4h-66.7a22.3 22.3 0 0 0-44.6 0H167a23 23 0 0 0 23 22.3h-.8c0 12.3 10 22.3 22.3 22.3 0 12.3 10 22.2 22.2 22.2h44.6c12.3 0 22.2-10 22.2-22.2 12.3 0 22.3-10 22.3-22.3h-.8a23 23 0 0 0 23-22.3"/>
  </g>
</svg>
