<svg xmlns="http://www.w3.org/2000/svg" width="1200" height="600" viewBox="0 0 1200 600">
  <defs>
    <clipPath id="s">
      <rect width="1200" height="600"/>
    </clipPath>
  </defs>
  <g clip-path="url(#s)">
    <g transform="scale(2.343750, 1.171875)">
      <path fill="#62B5E5" d="M512 256a256 256 0 1 1-512 0L256 0a256 256 0 0 1 256 256"/><path fill="#012169" d="M256 0v256H0A256 256 0 0 1 256 0"/><path fill="#FFFFFF" d="M217.6 256H256v-38.4L140.7 102.3H256V0A256 256 0 0 0 0 256h102.3V140.7z"/><path fill="#C8102E" d="M256 76.6V25.4H144.7A257 257 0 0 0 25.4 144.7V256h51.2V76.6z"/><path fill="#C8102E" d="M256 230.4V256L102.3 102.3h25.6z"/><path fill="#FFFFFF" d="M306 189.2v89c0 59.7 78 78 78 78s78-18.3 78-78v-89L384 167z"/><path fill="#C8102E" d="M462 189.2v-33.4H306v33.4h67V256h-67v22.3h66.8v74.5c6.7 2.3 11.1 3.4 11.1 3.4s4.4-1 11.1-3.4v-74.5h67V256h-66.8v-66.8z"/>
    </g>
  </g>
</svg>
