<svg xmlns="http://www.w3.org/2000/svg" width="1140" height="600" viewBox="0 0 1140 600">
  <defs>
    <clipPath id="s">
      <rect width="1140" height="600"/>
    </clipPath>
  </defs>
  <g clip-path="url(#s)">
    <g transform="scale(2.226562, 1.171875)">
      <circle cx="256" cy="256" r="256" fill="#75B2DD"/><path fill="#FFFFFF" d="m256 111.3 11 34h35.8l-29 21 11.1 34-28.9-21-29 21 11.1-34-29-21H245zM111.3 256l34-11v-35.8l21 29 34-11.1-21 28.9 21 29-34-11.1-21 29V267zM256 400.7l-11-34h-35.8l29-21-11.1-34 28.9 21 29-21-11.1 34 29 21H267zM400.7 256l-34 11v35.8l-21-29-34 11.1 21-28.9-21-29 34 11.1 21-29V245z"/>
    </g>
  </g>
</svg>
