<svg xmlns="http://www.w3.org/2000/svg" width="900" height="600" viewBox="0 0 900 600">
  <defs>
    <clipPath id="s">
      <rect width="900" height="600"/>
    </clipPath>
  </defs>
  <g clip-path="url(#s)">
    <g transform="scale(1.757812, 1.171875)">
      <path fill="#FFFFFF" d="M482.2 376c19-35.8 29.8-76.6 29.8-120s-10.8-84.2-29.8-120H29.8A255 255 0 0 0 0 256c0 43.4 10.8 84.2 29.8 120z"/><path fill="#E32118" d="M496.5 344a256.1 256.1 0 0 1-481 0z"/><path fill="#3E9A00" d="M496.5 168h-481a256.1 256.1 0 0 1 481 0"/><path fill="#0073CE" d="M0 245.6A255 255 0 0 1 74.9 74.9L256 256 74.9 437.1A255 255 0 0 1 0 266.4z"/><path fill="#DDDDDD" d="M300.5 211.5V267c0 34.1 44.5 44.6 44.5 44.6s44.6-10.5 44.6-44.6v-55.6z"/><path fill="#A36629" d="M334 257.1h22.2v32.3h-22.3z"/><path fill="#3E9A00" d="M367.3 244.9a22.3 22.3 0 1 0-44.5 0 11.1 11.1 0 1 0 0 22.2h44.5a11.1 11.1 0 1 0 0-22.2"/>
    </g>
  </g>
</svg>
