<svg xmlns="http://www.w3.org/2000/svg" width="960" height="600">
  <path fill="#4997D0" d="M0 0h320v600H0z"/>
  <path fill="#FFFFFF" d="M320 0h320v600H320z"/>
  <path fill="#4997D0" d="M640 0h320v600H640z"/>
  <g transform="translate(224,44)">
    <path fill="#EEEEEE" d="M128 512V0h256v512z"/><path fill="#338AF3" d="M0 512V0h144v512zm368 0V0h144v512z"/><path fill="#6DA544" d="m319 193-23.6 23.6a55.5 55.5 0 0 1-39.4 95 55.7 55.7 0 0 1-39.4-95L193 193a89 89 0 1 0 126 0"/><path fill="#ACABB1" d="M322.9 299.3 279.6 256l41.2-41.2L319 193l-11.7-11.8-51.2 51.2-51.2-51.2-11.7 11.8-2 21.8 41.3 41.2-43.3 43.3 23.6 23.6 43.3-43.3 43.3 43.3z"/>
  </g>
</svg>