<svg xmlns="http://www.w3.org/2000/svg" width="960" height="600">
  <!-- Background stripes at full-size proportions -->
  <rect width="960" height="600" fill="#4997D0"/>
  <rect x="320" width="320" height="600" fill="#FFFFFF"/>
  <!-- Emblem from square variant, centered at (480,300): dx=224, dy=44 -->
  <g transform="translate(224,44)">
    <path fill="#6DA544" d="m319 193-23.6 23.6a55.5 55.5 0 0 1-39.4 95 55.7 55.7 0 0 1-39.4-95L193 193a89 89 0 1 0 126 0"/>
    <path fill="#ACABB1" d="M322.9 299.3 279.6 256l41.2-41.2L319 193l-11.7-11.8-51.2 51.2-51.2-51.2-11.7 11.8-2 21.8 41.3 41.2-43.3 43.3 23.6 23.6 43.3-43.3 43.3 43.3z"/>
  </g>
</svg>
