<svg xmlns="http://www.w3.org/2000/svg" width="1000" height="600" viewBox="0 0 1000 600">
  <defs>
    <clipPath id="s">
      <rect width="1000" height="600"/>
    </clipPath>
  </defs>
  <g clip-path="url(#s)">
    <g transform="scale(1.953125, 1.171875)">
      <circle cx="256" cy="256" r="256" fill="#2A936A"/><path fill="#FFC20E" fill-rule="evenodd" d="M102.4 51.2A256 256 0 0 0 0 256c0 83.7 40.2 158.1 102.4 204.8L512 256z" clip-rule="evenodd"/><path fill="#FFFFFF" fill-rule="evenodd" d="M102.4 51.2 512 256 102.4 460.8a257 257 0 0 1-21.4-18L454.8 256 81 69.1q10.3-9.5 21.4-18" clip-rule="evenodd"/><path fill="#BE1E2D" fill-rule="evenodd" d="M75 75A255 255 0 0 0 0 256c0 70.7 28.7 134.7 75 181l181-181z" clip-rule="evenodd"/><path fill="#000000" fill-rule="evenodd" d="M75 75q-9 9-17.2 19l162 162-162 162q8 10 17.2 19l181-181z" clip-rule="evenodd"/>
    </g>
  </g>
</svg>
