<svg xmlns="http://www.w3.org/2000/svg" width="1000" height="600" viewBox="0 0 1000 600">
  <defs>
    <clipPath id="s">
      <rect width="1000" height="600"/>
    </clipPath>
  </defs>
  <g clip-path="url(#s)">
    <g transform="scale(1.953125, 1.171875)">
      <path fill="#D21034" d="M256 512a256 256 0 0 0 256-255.5v-.5l-256-32L0 256a256 256 0 0 0 256 256"/><path fill="#00209F" d="M512 255.5v.5H0a256 256 0 0 1 512-.5"/><path fill="#FFFFFF" d="m352 328-96-12-96 12V184h192z"/><path fill="#00209F" d="M256 316a48 48 0 1 0 0-96 48 48 0 0 0 0 96"/><path fill="#D21034" d="M256 292a24 24 0 1 0 0-48 24 24 0 0 0 0 48"/><path fill="#FFFFFF" d="M222 234a48 48 0 0 1 68 0l-34 34z"/><path fill="#016A16" d="M220 208h72l-36 36z"/><path fill="#F1B617" d="M244 232h24v72h-24z"/><path fill="#016A16" d="M295 296h-78l-57 32h192z"/>
    </g>
  </g>
</svg>
