<svg xmlns="http://www.w3.org/2000/svg" width="1140" height="600" viewBox="0 0 1140 600">
  <defs>
    <clipPath id="s">
      <rect width="1140" height="600"/>
    </clipPath>
  </defs>
  <g clip-path="url(#s)">
    <g transform="scale(2.226562, 1.171875)">
      <circle cx="256" cy="256" r="256" fill="#003893"/><path fill="#FFFFFF" fill-rule="evenodd" d="M95.5 455.5Q84.8 446.8 75 437L437 75a255 255 0 0 1 71.1 136.5z" clip-rule="evenodd"/><path fill="#DD7500" fill-rule="evenodd" d="M84.7 446.3q-5-4.5-9.7-9.3L437 75a257 257 0 0 1 46 62.4z" clip-rule="evenodd"/><path fill="#FFFFFF" d="m160 40 10.4 81.4L200 90.7l-11.7 41 41-11.7-30.7 29.6L280 160l-81.4 10.4 30.7 29.6-41-11.7 11.7 41-29.6-30.7L160 280l-10.4-81.4-29.6 30.7 11.7-41-41 11.7 30.7-29.6L40 160l81.4-10.4L90.7 120l41 11.7-11.7-41 29.6 30.7z"/>
    </g>
  </g>
</svg>
