<svg xmlns="http://www.w3.org/2000/svg" width="900" height="600" viewBox="0 0 900 600">
  <g transform="scale(2.000000, 2.000000)">
    <path d="m-225-114h450v300h-450z"/><circle fill="#ce1126" r="64.5"/><g id="a"><g id="b"><g id="c"><g id="d"><path id="e" d="m0 0c-2.16666 0-3 3.25-3 6.5 0 7.833332.95963 11.928508 3 23.5 2.04036-11.571492 3-15.666668 3-23.5 0-3.25-.83333-6.5-3-6.5z" fill="#ce1126" transform="translate(0 -102)"/></g></g></g></g><g transform="matrix(.17364818 -.98480775 .98480775 .17364818 0 0)"><g><g><g><g><path d="m0 0c-2.16666 0-3 3.25-3 6.5 0 7.833332.95963 11.928508 3 23.5 2.04036-11.571492 3-15.666668 3-23.5 0-3.25-.83333-6.5-3-6.5z" fill="#ce1126" transform="translate(0 -102)"/></g></g><path d="m-225-21.5h450v207.5h-450z" stroke-width="5.259911"/><path d="m-225-14h450v200h-450z" fill="#ce1126" stroke-width="1.414214"/><path d="m-225 86h450v100h-450z" fill="#339e35"/>
  </g>
</svg>
