<svg xmlns="http://www.w3.org/2000/svg" width="900" height="600" viewBox="0 0 900 600">
  <defs>
    <clipPath id="s">
      <rect width="900" height="600"/>
    </clipPath>
  </defs>
  <g clip-path="url(#s)">
    <g transform="scale(1.757812, 1.171875)">
      <path fill="#CE1126" d="M482.2 376c19-35.8 29.8-76.6 29.8-120s-10.8-84.2-29.8-120H29.8A255 255 0 0 0 0 256c0 43.4 10.8 84.2 29.8 120z"/><path fill="#339E35" d="M496.5 344a256.1 256.1 0 0 1-481 0z"/><path fill="#000000" d="M496.5 168h-481a256.1 256.1 0 0 1 481 0"/><path fill="#CE1126" d="m332.5 122.4-31.2-14.7 16.6-30.2-34 6.4-4.3-34.3L256 75l-23.6-25.3L228 84l-34-6.5 16.7 30.3-31.3 14.7z"/>
    </g>
  </g>
</svg>
