<svg xmlns="http://www.w3.org/2000/svg" width="1000" height="600">
  <path fill="#0067C6" d="M0 0h1000v600H0z"/>
  <path fill="#FFFFFF" d="M0 200h1000v200H0z"/>
  <g transform="translate(244,44)">
    <path fill="#C8A400" d="M256 178a78 78 0 1 0 0 156 78 78 0 0 0 0-156m0 122.5a44.5 44.5 0 1 1 0-89 44.5 44.5 0 0 1 0 89"/>
    <path fill="#0067C6" d="M294.6 267.1 256 256l-38.6 11.1-12.8 22.3h102.8z"/>
    <path fill="#17C0EB" d="m256 200.4-25.7 44.5L256 256l25.7-11.1z"/>
    <path fill="#97C924" d="M217.4 267.1h77.2L281.7 245h-51.4z"/>
  </g>
</svg>
