<svg version="1.1" xmlns="http://www.w3.org/2000/svg" height="600" width="1200">
<defs>
	<clipPath id="Canton">
		<path d="M 0,0 L 600,0 L 600,300 L 0,300 z"/>
	</clipPath>
	<clipPath id="Diagonals">
		<path d="M 0,0 L 300,150 L 0,150 z M 300,0 L 600,0 L 300,150 z M 300,150 L 600,150 L 600,300 z M 300,150 L 300,300 L 0,300 z"/>
	</clipPath>
	<g id="Pentagram">
		<g id="Arm" transform="translate(0,-0.324925)">
			<path d="M 0,0 L 0,0.5 L 1,0 z"/>
			<path d="M 0,0 L 0,-0.5 L 1,0 z" transform="rotate(-36,1,0)"/>
		</g>
	</g>
</defs>
<rect fill="#012169" x="0" y="0" width="1200" height="600"/>
<g id="Flag_of_the_United_Kingdom">
	<path id="Saint_Andrews_Cross" stroke="#FFF" d="M 0,0 L 600,300 M 0,300 L 600,0" stroke-width="60" clip-path="url(#Canton)"/>
	<path id="Saint_Patricks_Cross" stroke="#C8102E" d="M 0,0 L 600,300 M 0,300 L 600,0" stroke-width="40" clip-path="url(#Diagonals)"/>
	<g id="Saint_Georges_Cross">
		<path stroke="#FFF" d="M 300,0 L 300,300 M 0,150 L 600,150" stroke-width="100" clip-path="url(#Canton)"/>
		<path stroke="#C8102E" d="M 300,0 L 300,300 M 0,150 L 600,150" stroke-width="60" clip-path="url(#Canton)"/>
	</g>
</g>
<g id="Southern_Cross">
	<g id="Gamma_Crucis">
		<g transform="translate(900,120) scale(45.4)"><g>
		<g transform="translate(0,-0.324925)">
			<path d="M 0,0 L 0,0.5 L 1,0 z"/>
			<path d="M 0,0 L 0,-0.5 L 1,0 z" transform="rotate(-36,1,0)"/>
		</g></g>
		<g transform="translate(900,120) scale(30)"><g>
		<g transform="translate(0,-0.324925)">
			<path d="M 0,0 L 0,0.5 L 1,0 z"/>
			<path d="M 0,0 L 0,-0.5 L 1,0 z" transform="rotate(-36,1,0)"/>
		</g></g>
	</g>
	<g transform="rotate(82,900,240)">
		<g id="Delta_Crucis">
			<g transform="translate(900,120) rotate(-82) scale(40.4)"><g>
		<g transform="translate(0,-0.324925)">
			<path d="M 0,0 L 0,0.5 L 1,0 z"/>
			<path d="M 0,0 L 0,-0.5 L 1,0 z" transform="rotate(-36,1,0)"/>
		</g></g>
			<g transform="translate(900,120) rotate(-82) scale(25)"><g>
		<g transform="translate(0,-0.324925)">
			<path d="M 0,0 L 0,0.5 L 1,0 z"/>
			<path d="M 0,0 L 0,-0.5 L 1,0 z" transform="rotate(-36,1,0)"/>
		</g></g>
		</g>
		<g id="Beta_Crucis">
			<g transform="translate(900,380) rotate(-82) scale(45.4)"><g>
		<g transform="translate(0,-0.324925)">
			<path d="M 0,0 L 0,0.5 L 1,0 z"/>
			<path d="M 0,0 L 0,-0.5 L 1,0 z" transform="rotate(-36,1,0)"/>
		</g></g>
			<g transform="translate(900,380) rotate(-82) scale(30)"><g>
		<g transform="translate(0,-0.324925)">
			<path d="M 0,0 L 0,0.5 L 1,0 z"/>
			<path d="M 0,0 L 0,-0.5 L 1,0 z" transform="rotate(-36,1,0)"/>
		</g></g>
		</g>
	</g>
	<g id="Alpha_Crucis">
		<g transform="translate(900,480) scale(50.4)"><g>
		<g transform="translate(0,-0.324925)">
			<path d="M 0,0 L 0,0.5 L 1,0 z"/>
			<path d="M 0,0 L 0,-0.5 L 1,0 z" transform="rotate(-36,1,0)"/>
		</g></g>
		<g transform="translate(900,480) scale(35)"><g>
		<g transform="translate(0,-0.324925)">
			<path d="M 0,0 L 0,0.5 L 1,0 z"/>
			<path d="M 0,0 L 0,-0.5 L 1,0 z" transform="rotate(-36,1,0)"/>
		</g></g>
	</g>
</g>
</svg>
