<svg xmlns="http://www.w3.org/2000/svg" width="1200" height="600" viewBox="0 0 1200 600">
  <g transform="scale(6.000000, 6.000000)">
    <clipPath id="A"><path d="M-35-30h200V70H-35z"/></clipPath><path fill="#215b33" d="M-35-30h200V70H-35z"/><path d="M-35 70V-30h200" fill="#0051ba"/><path d="M165-30L-35 70" stroke-width="9" stroke="#fcd116" clip-path="url(#A)"/><g id="B" fill="#fff" transform="scale(10)"><g id="C"><path id="D" d="M0-1l-.309.951.476.155z"/></g></g><g transform="matrix(1 0 0 1 19.741054 -16.92013)"><g fill="#fff" transform="scale(10)"><g><path d="M0-1l-.309.951.476.155z"/></g></g><g transform="matrix(1 0 0 1 19.741054 16.92013)"><g fill="#fff" transform="scale(10)"><g><path d="M0-1l-.309.951.476.155z"/></g></g><g transform="matrix(1 0 0 1 -19.741054 16.92013)"><g fill="#fff" transform="scale(10)"><g><path d="M0-1l-.309.951.476.155z"/></g></g><g transform="matrix(1 0 0 1 -19.741054 -16.92013)"><g fill="#fff" transform="scale(10)"><g><path d="M0-1l-.309.951.476.155z"/></g></g>
  </g>
</svg>
