<svg xmlns="http://www.w3.org/2000/svg" width="1200" height="600" viewBox="0 0 1200 600">
  <defs>
    <clipPath id="s">
      <rect width="1200" height="600"/>
    </clipPath>
  </defs>
  <g clip-path="url(#s)">
    <g transform="scale(2.343750, 1.171875)">
      <path fill="#002F6C" fill-rule="evenodd" d="M44.3 400a256 256 0 0 1 156-394z" clip-rule="evenodd"/><path fill="#FED141" fill-rule="evenodd" d="M165.1 16.6A255 255 0 0 1 358 21L63.6 424.8q-13.2-15-24-31.8z" clip-rule="evenodd"/><path fill="#D22730" fill-rule="evenodd" d="M333.4 12a256 256 0 0 1 173.7 193.7l-412.4 249a258 258 0 0 1-34.2-33.4z" clip-rule="evenodd"/><path fill="#FFFFFF" fill-rule="evenodd" d="M478.7 382.4a255 255 0 0 0 21.4-203.8l-409.4 273a257 257 0 0 0 36.8 25.9z" clip-rule="evenodd"/><path fill="#007A33" fill-rule="evenodd" d="M495.4 346.9A256 256 0 0 1 119 472.3z" clip-rule="evenodd"/>
    </g>
  </g>
</svg>
