<svg width="900" height="600" viewBox="0 0 54 36" xmlns="http://www.w3.org/2000/svg" fill="#fff">
<path d="M0 0h54v36H0z"/>
<path d="M0 0h54v18H0z" fill="#ed2939"/>
<circle cx="11.405" cy="9" r="6.625"/>
<circle cx="15.03" cy="9" r="7.25" fill="#ed2939"/>
<path id="s" d="m15.03 3.475-1.01393 3.120554 2.654502-1.928609h-3.281145l2.654502 1.928609z"/>
<g id="t">
<g transform="rotate(72 15.03 9)"><path d="m15.03 3.475-1.01393 3.120554 2.654502-1.928609h-3.281145l2.654502 1.928609z"/></g>
<g transform="rotate(216 15.03 9)"><path d="m15.03 3.475-1.01393 3.120554 2.654502-1.928609h-3.281145l2.654502 1.928609z"/></g>
</g>
<g transform="rotate(72 15.03 9)"><g>
<g transform="rotate(72 15.03 9)"><path d="m15.03 3.475-1.01393 3.120554 2.654502-1.928609h-3.281145l2.654502 1.928609z"/></g>
<g transform="rotate(216 15.03 9)"><path d="m15.03 3.475-1.01393 3.120554 2.654502-1.928609h-3.281145l2.654502 1.928609z"/></g>
</g></g>
</svg>
