<svg xmlns="http://www.w3.org/2000/svg" width="900" height="600" viewBox="0 0 900 600">
  <g transform="scale(1.757812, 1.171875)">
    <g clip-path="url(#a)"><path fill="#00A3DD" d="M437 75 224 224 75 437a256 256 0 0 0 437-178.2v-5.7A255 255 0 0 0 437 75"/><path fill="#1EB53A" d="M437 75 75 437A256 256 0 0 1 437 75"/><path fill="#FCD116" d="M372.2 27.8a257 257 0 0 1 112 112L139.8 484.2a257 257 0 0 1-112-112z"/><path fill="#000000" d="M402.2 45.8q37.7 26.3 64 64L109.8 466.2a256 256 0 0 1-64-64z"/></g><defs><clipPath id="a"><path fill="#FFFFFF" d="M0 0h900v600H0z"/></clipPath></defs>
  </g>
</svg>
