<svg xmlns="http://www.w3.org/2000/svg" viewBox="0 0 935 620"><path fill="#FFFFFF" d="M0 0h935v620H0z"/><path fill="#0038A8" d="M345 65h590v70H345zm0 140h590v70H345zM0 345h935v70H0zm0 140h935v70H0z"/><g transform="translate(44.5,42)"><path fill="#FCD116" d="m128 48 21.6 58.4L208 128l-58.4 21.6L128 208l-21.6-58.4L48 128l58.4-21.6z"/><path fill="#7B3F00" d="M128 48v58.4h21.6L208 128h-58.4v21.6L128 208v-58.4h-21.6L48 128h58.4v-21.6z"/><path fill="#FCD116" d="m184.6 71.4-26 56.6 26 56.6-56.6-26-56.6 26 26-56.6-26-56.6 56.6 26z"/><path fill="#7B3F00" d="m184.6 71.4-41.3 41.3 15.3 15.3 26 56.6-41.3-41.3-15.3 15.3-56.6 26 41.3-41.3L97.4 128l-26-56.6 41.3 41.3L128 97.4z"/><circle cx="128" cy="128" r="40" fill="#FCD116"/></g></svg>
