<svg xmlns="http://www.w3.org/2000/svg" width="600" height="360" viewBox="0 0 950 570">
	<rect width="950" height="285" fill="#d21034"/>
	<rect y="285" width="950" height="285" fill="#009543"/>
	<path d="M 0,0 L 552.8133,285 L 0,570 z" fill="#000"/>
	<rect y="234" width="950" height="102" fill="#000"/>
	<path d="M 0,40.502 L 474.251,284.9995 L 0,529.497 z" fill="#fdce12"/>
	<rect y="270" width="950" height="30" fill="#fdce12"/>
	<path d="M 0,74.25473 L 408.78173,285 L 0,495.745 z" fill="#000"/>
	<path fill="#fdce12" d="M54.6 310.6V289a39 39 0 0 0 38.8-38.8A27.5 27.5 0 0 0 65.9 223a18.7 18.7 0 0 0-18.7 18.7 12 12 0 0 0 12 12c3.7 0 6.8-3.1 6.8-6.8h21.4A28 28 0 0 1 59.2 275c-18.4 0-33.4-15-33.4-33.4 0-22.2 18-40.2 40.1-40.2a49 49 0 0 1 49 49c0 33.1-27 60.2-60.3 60.2"/>
</svg>
