<svg xmlns="http://www.w3.org/2000/svg" width="512" height="512" viewBox="0 0 512 512">
  <defs>
    <clipPath id="r">
      <rect width="512" height="512"/>
    </clipPath>
  </defs>
  <g clip-path="url(#r)">
    <path fill="#43B02A" d="M0 0v512l256-256z"/><path fill="#C8102E" d="M512 0H0l256 256z"/><path fill="#43B02A" d="M512 512V0L256 256z"/><path fill="#C8102E" d="M0 512h512L256 256z"/><path fill="#FFFFFF" d="M464 512h48v-48L304 256 512 48V0h-48L256 208 48 0H0v48l208 208L0 464v48h48l208-208z"/><path fill="#FFFFFF" d="M384 256a128 128 0 1 0-256 0 128 128 0 0 0 256 0"/><path fill="#C8102E" d="m265.6 172.6-9.6-16.7-9.6 16.7H227l9.6 16.6-9.6 16.7h19.3l9.6 16.7 9.6-16.7H285l-9.6-16.7 9.6-16.6zM323.4 306h19.3l-9.6-16.6 9.6-16.7h-19.3l-9.6-16.7-9.6 16.7h-19.3l9.6 16.7L285 306h19.3l9.6 16.7zM179 289.4l-9.7 16.7h19.2l9.7 16.7 9.6-16.7h19.3l-9.6-16.7 9.6-16.7h-19.3l-9.6-16.7-9.7 16.7h-19.2z"/>
  </g>
</svg>
