<svg xmlns="http://www.w3.org/2000/svg" width="512" height="512" viewBox="0 0 512 512">
  <defs>
    <clipPath id="r">
      <rect width="512" height="512"/>
    </clipPath>
  </defs>
  <g clip-path="url(#r)">
    <path fill="#006AC8" d="M0 0h512v512H0z"/><path fill="#D90F19" d="M512 512H0v-44.5h512zm0-467.5H0V0h512z"/><path fill="#FFFFFF" d="M256 378.4a122.4 122.4 0 1 0 0-244.8 122.4 122.4 0 0 0 0 244.8"/><path fill="#AD7D5A" d="M256 356.2a100.2 100.2 0 1 0 0-200.4 100.2 100.2 0 0 0 0 200.4"/><path fill="#FFFFFF" d="M256 322.8a66.8 66.8 0 1 0 0-133.6 66.8 66.8 0 0 0 0 133.6"/><path fill="#006AC8" d="M256 239.3 219.8 256v27.8l36.2 22.3 36.2-22.3V256z"/><path fill="#FFE682" d="M219.8 222.6h72.4V256h-72.4z"/>
  </g>
</svg>
