<svg xmlns="http://www.w3.org/2000/svg" width="512" height="512" viewBox="0 0 512 512">
  <defs>
    <clipPath id="r">
      <rect width="512" height="512"/>
    </clipPath>
  </defs>
  <g clip-path="url(#r)">
    <path fill="#C8102E" d="M512 0v512H0V0z"/><path fill="#009739" d="M0 512V0h512z"/><path fill="#FFCD00" d="M512 112V0H400L0 400v112h112z"/><path fill="#000000" d="M0 448v64h64L512 64V0h-64z"/><path fill="#FFFFFF" d="m151.6 308.2 23.9 12.2 19-19-4.2 26.5 23.9 12.2-26.5 4.2-4.2 26.4-12.2-23.9-26.5 4.2 19-19zm156.7-156.7 23.8 12.2 19-19-4.2 26.5 24 12.2-26.6 4.2-4.2 26.5-12.1-23.9-26.5 4.2 19-19z"/>
  </g>
</svg>
