<svg xmlns="http://www.w3.org/2000/svg" width="512" height="512" viewBox="0 0 512 512">

  <defs>
    <clipPath id="r">
      <rect width="512" height="512"/>
    </clipPath>
  </defs>
  <g clip-path="url(#r)">
    <circle cx="256" cy="256" r="256" fill="#012169"/><path fill="#FFC72C" fill-rule="evenodd" d="M510 288a258 258 0 0 0 0-64H2a259 259 0 0 0 0 64z" clip-rule="evenodd"/><path fill="#FFFFFF" d="m144 288 10.4 41.4 29.6-30.7-11.7 41 41-11.7-30.7 29.6L224 368l-41.4 10.4 30.7 29.6-41-11.7 11.7 41-29.6-30.7L144 448l-10.4-41.4-29.6 30.7 11.7-41-41 11.7 30.7-29.6L64 368l41.4-10.4L74.7 328l41 11.7-11.7-41 29.6 30.7z"/>
  </g>
</svg>
