<svg xmlns="http://www.w3.org/2000/svg" width="512" height="512" viewBox="0 0 512 512">

  <defs>
    <clipPath id="r">
      <rect width="512" height="512"/>
    </clipPath>
  </defs>
  <g clip-path="url(#r)">
    <path fill="#E22028" d="M482.2 376c19-35.8 29.8-76.6 29.8-120s-10.8-84.2-29.8-120H29.8A255 255 0 0 0 0 256c0 43.4 10.8 84.2 29.8 120z"/><path fill="#00914C" d="M496.5 344a256.1 256.1 0 0 1-481 0z"/><path fill="#000000" d="M496.5 168h-481a256.1 256.1 0 0 1 481 0"/><path fill="#FFFFFF" fill-rule="evenodd" d="M493.4 160a254 254 0 0 1 10.5 32H8.1a254 254 0 0 1 10.5-32zm0 192a254 254 0 0 0 10.5-32H8.1a254 254 0 0 0 10.5 32z" clip-rule="evenodd"/><path fill="#00B6F2" d="M0 245.6A255 255 0 0 1 74.9 74.9L256 256 74.9 437.1A255 255 0 0 1 0 266.4z"/><path fill="#FFE51A" d="m106 182 16.7 51.2h53.7l-43.5 31.5 16.6 51.1-43.4-31.6-43.5 31.6 16.6-51-43.4-31.6h53.7z"/>
  </g>
</svg>
