<svg xmlns="http://www.w3.org/2000/svg" width="1000" height="600" viewBox="0 0 500 300">
  <path fill="#CE1126" d="M0 0h500v300H0z"/>
  <path fill="#007A5E" d="M42 42h416v216H42z"/>
  <path fill="#FCD116" d="M42 42h416L42 258h416z"/>
  <circle r="36" cy="150" cx="250" fill="#CE1126"/>
  <path fill="#CE1126" d="M67.944 150.113c4.262 8.515 12.757 17.893 20.313 21.321.367-8.513-2.341-19.515-6.224-28.33z"/>
  <path fill="#FCD116" d="M60.284 121.487c6.35 13.695-17.533 45.856 21.453 53.976-4.736-6.643-7.33-17.752-6.04-26.456 8.095 3.448 16.212 11.464 19.402 18.972 13.444-37.484-26.456-33.922-34.815-46.492z"/>
  <!-- Bottom row of 3 stars -->
  <path fill="#FCD116" d="m150 259.5-11.462 35.276 30.007-21.802h-37.091l30.007 21.802z"/>
  <path fill="#FCD116" transform="translate(100,0)" d="m150 259.5-11.462 35.276 30.007-21.802h-37.091l30.007 21.802z"/>
  <path fill="#FCD116" transform="translate(200,0)" d="m150 259.5-11.462 35.276 30.007-21.802h-37.091l30.007 21.802z"/>
  <!-- Top row of 3 stars -->
  <path fill="#FCD116" transform="translate(200,-258)" d="m150 259.5-11.462 35.276 30.007-21.802h-37.091l30.007 21.802z"/>
  <path fill="#FCD116" transform="translate(100,-258)" d="m150 259.5-11.462 35.276 30.007-21.802h-37.091l30.007 21.802z"/>
  <path fill="#FCD116" transform="translate(0,-258)" d="m150 259.5-11.462 35.276 30.007-21.802h-37.091l30.007 21.802z"/>
  <!-- Center star -->
  <path fill="#FCD116" d="m250 117-19.397 59.697 50.782-36.895h-62.769l50.782 36.895z"/>
</svg>
