<svg xmlns="http://www.w3.org/2000/svg" width="1200" height="600" viewBox="0 0 72 36" fill="#0D3B99">
	<title>Flag of Honduras</title>
	<path fill="#FFF" d="m0 0h72v36H0z" />
	<path d="m0 0h72v12H0zm0 24h72v12H0z" />
	<g>
		<path d="m26 13 1.1756 3.618-3.0777-2.236h3.8042l-3.0777 2.236z" />
		<g transform="translate(0,6)"><path d="m26 13 1.1756 3.618-3.0777-2.236h3.8042l-3.0777 2.236z" />
		</g></g>
	<g transform="translate(10,3)"><path d="m26 13 1.1756 3.618-3.0777-2.236h3.8042l-3.0777 2.236z" />
		</g><g transform="translate(20,0)"><g>
		<path d="m26 13 1.1756 3.618-3.0777-2.236h3.8042l-3.0777 2.236z" />
		<g transform="translate(0,6)"><path d="m26 13 1.1756 3.618-3.0777-2.236h3.8042l-3.0777 2.236z" />
		</g></g>
	</g><g transform="translate(0,6)"><path d="m26 13 1.1756 3.618-3.0777-2.236h3.8042l-3.0777 2.236z" />
		</g><g transform="translate(10,3)"><path d="m26 13 1.1756 3.618-3.0777-2.236h3.8042l-3.0777 2.236z" />
		</g><g transform="translate(20,0)"><g>
		<path d="m26 13 1.1756 3.618-3.0777-2.236h3.8042l-3.0777 2.236z" />
		<g transform="translate(0,6)"><path d="m26 13 1.1756 3.618-3.0777-2.236h3.8042l-3.0777 2.236z" />
		</g></g>
	</g></svg>