<svg xmlns="http://www.w3.org/2000/svg" width="900" height="600" viewBox="-45 -30 90 60" fill="#07038D">
  <path fill="#FFF" d="m-45-30h90v60h-90z"/>
  <path fill="#FF6820" d="m-45-30h90v20h-90z"/>
  <path fill="#046A38" d="m-45 10h90v20h-90z"/>
  <circle r="9.25"/>
  <circle fill="#FFF" r="8"/>
  <circle r="1.6"/>
  <!-- 24 Ashoka Chakra spokes and dots, expanded from recursive <use> -->
  <g transform="rotate(0)"><path d="m0-8 .3 4.81409L0-.80235-.3-3.18591z"/><circle transform="rotate(7.5)" r="0.35" cy="-8"/></g>
  <g transform="rotate(0) scale(-1)"><path d="m0-8 .3 4.81409L0-.80235-.3-3.18591z"/><circle transform="rotate(7.5)" r="0.35" cy="-8"/></g>
  <g transform="rotate(15)"><path d="m0-8 .3 4.81409L0-.80235-.3-3.18591z"/><circle transform="rotate(7.5)" r="0.35" cy="-8"/></g>
  <g transform="rotate(15) scale(-1)"><path d="m0-8 .3 4.81409L0-.80235-.3-3.18591z"/><circle transform="rotate(7.5)" r="0.35" cy="-8"/></g>
  <g transform="rotate(30)"><path d="m0-8 .3 4.81409L0-.80235-.3-3.18591z"/><circle transform="rotate(7.5)" r="0.35" cy="-8"/></g>
  <g transform="rotate(30) scale(-1)"><path d="m0-8 .3 4.81409L0-.80235-.3-3.18591z"/><circle transform="rotate(7.5)" r="0.35" cy="-8"/></g>
  <g transform="rotate(45)"><path d="m0-8 .3 4.81409L0-.80235-.3-3.18591z"/><circle transform="rotate(7.5)" r="0.35" cy="-8"/></g>
  <g transform="rotate(45) scale(-1)"><path d="m0-8 .3 4.81409L0-.80235-.3-3.18591z"/><circle transform="rotate(7.5)" r="0.35" cy="-8"/></g>
  <g transform="rotate(60)"><path d="m0-8 .3 4.81409L0-.80235-.3-3.18591z"/><circle transform="rotate(7.5)" r="0.35" cy="-8"/></g>
  <g transform="rotate(60) scale(-1)"><path d="m0-8 .3 4.81409L0-.80235-.3-3.18591z"/><circle transform="rotate(7.5)" r="0.35" cy="-8"/></g>
  <g transform="rotate(75)"><path d="m0-8 .3 4.81409L0-.80235-.3-3.18591z"/><circle transform="rotate(7.5)" r="0.35" cy="-8"/></g>
  <g transform="rotate(75) scale(-1)"><path d="m0-8 .3 4.81409L0-.80235-.3-3.18591z"/><circle transform="rotate(7.5)" r="0.35" cy="-8"/></g>
  <g transform="rotate(90)"><path d="m0-8 .3 4.81409L0-.80235-.3-3.18591z"/><circle transform="rotate(7.5)" r="0.35" cy="-8"/></g>
  <g transform="rotate(90) scale(-1)"><path d="m0-8 .3 4.81409L0-.80235-.3-3.18591z"/><circle transform="rotate(7.5)" r="0.35" cy="-8"/></g>
  <g transform="rotate(105)"><path d="m0-8 .3 4.81409L0-.80235-.3-3.18591z"/><circle transform="rotate(7.5)" r="0.35" cy="-8"/></g>
  <g transform="rotate(105) scale(-1)"><path d="m0-8 .3 4.81409L0-.80235-.3-3.18591z"/><circle transform="rotate(7.5)" r="0.35" cy="-8"/></g>
  <g transform="rotate(120)"><path d="m0-8 .3 4.81409L0-.80235-.3-3.18591z"/><circle transform="rotate(7.5)" r="0.35" cy="-8"/></g>
  <g transform="rotate(120) scale(-1)"><path d="m0-8 .3 4.81409L0-.80235-.3-3.18591z"/><circle transform="rotate(7.5)" r="0.35" cy="-8"/></g>
  <g transform="rotate(135)"><path d="m0-8 .3 4.81409L0-.80235-.3-3.18591z"/><circle transform="rotate(7.5)" r="0.35" cy="-8"/></g>
  <g transform="rotate(135) scale(-1)"><path d="m0-8 .3 4.81409L0-.80235-.3-3.18591z"/><circle transform="rotate(7.5)" r="0.35" cy="-8"/></g>
  <g transform="rotate(150)"><path d="m0-8 .3 4.81409L0-.80235-.3-3.18591z"/><circle transform="rotate(7.5)" r="0.35" cy="-8"/></g>
  <g transform="rotate(150) scale(-1)"><path d="m0-8 .3 4.81409L0-.80235-.3-3.18591z"/><circle transform="rotate(7.5)" r="0.35" cy="-8"/></g>
  <g transform="rotate(165)"><path d="m0-8 .3 4.81409L0-.80235-.3-3.18591z"/><circle transform="rotate(7.5)" r="0.35" cy="-8"/></g>
  <g transform="rotate(165) scale(-1)"><path d="m0-8 .3 4.81409L0-.80235-.3-3.18591z"/><circle transform="rotate(7.5)" r="0.35" cy="-8"/></g>
</svg>
