<svg xmlns="http://www.w3.org/2000/svg" width="630" height="360">
  <path fill="#239F40" d="M0 0h630v120H0z"/>
  <path fill="#FFFFFF" d="M0 120h630v120H0z"/>
  <path fill="#DA0000" d="M0 240h630v120H0z"/>
  <!-- Kufic script border (top, between green and white) -->
  <g fill="none" stroke="#FFFFFF" stroke-width="2" transform="translate(8.4,100.4)">
    <!-- tb1 at x=0 -->
    <path d="M0,1H26M1,10V5H9V9H17V5H12M4,9H6M26,9H21V5H29M29,0V9H37V0M33,0V9" transform="translate(0,0) scale(1.4)"/>
    <path d="M0,7H9M10,7H19" transform="translate(0,0) scale(2.8)"/>
    <path d="M0,7H9M10,7H19" transform="translate(0,120) scale(2.8)"/>
    <path d="M0,1H26M1,10V5H9V9H17V5H12M4,9H6M26,9H21V5H29M29,0V9H37V0M33,0V9" transform="translate(0,145.2) scale(1.4)"/>
    <!-- tb1 at x=56 -->
    <path d="M0,1H26M1,10V5H9V9H17V5H12M4,9H6M26,9H21V5H29M29,0V9H37V0M33,0V9" transform="translate(56,0) scale(1.4)"/>
    <path d="M0,7H9M10,7H19" transform="translate(56,0) scale(2.8)"/>
    <path d="M0,7H9M10,7H19" transform="translate(56,120) scale(2.8)"/>
    <path d="M0,1H26M1,10V5H9V9H17V5H12M4,9H6M26,9H21V5H29M29,0V9H37V0M33,0V9" transform="translate(56,145.2) scale(1.4)"/>
    <!-- tb1 at x=112 -->
    <path d="M0,1H26M1,10V5H9V9H17V5H12M4,9H6M26,9H21V5H29M29,0V9H37V0M33,0V9" transform="translate(112,0) scale(1.4)"/>
    <path d="M0,7H9M10,7H19" transform="translate(112,0) scale(2.8)"/>
    <path d="M0,7H9M10,7H19" transform="translate(112,120) scale(2.8)"/>
    <path d="M0,1H26M1,10V5H9V9H17V5H12M4,9H6M26,9H21V5H29M29,0V9H37V0M33,0V9" transform="translate(112,145.2) scale(1.4)"/>
    <!-- tb1 at x=168 -->
    <path d="M0,1H26M1,10V5H9V9H17V5H12M4,9H6M26,9H21V5H29M29,0V9H37V0M33,0V9" transform="translate(168,0) scale(1.4)"/>
    <path d="M0,7H9M10,7H19" transform="translate(168,0) scale(2.8)"/>
    <path d="M0,7H9M10,7H19" transform="translate(168,120) scale(2.8)"/>
    <path d="M0,1H26M1,10V5H9V9H17V5H12M4,9H6M26,9H21V5H29M29,0V9H37V0M33,0V9" transform="translate(168,145.2) scale(1.4)"/>
    <!-- tb1 at x=224 (tb3 at x=168: tb1 at 168+56) -->
    <path d="M0,1H26M1,10V5H9V9H17V5H12M4,9H6M26,9H21V5H29M29,0V9H37V0M33,0V9" transform="translate(224,0) scale(1.4)"/>
    <path d="M0,7H9M10,7H19" transform="translate(224,0) scale(2.8)"/>
    <path d="M0,7H9M10,7H19" transform="translate(224,120) scale(2.8)"/>
    <path d="M0,1H26M1,10V5H9V9H17V5H12M4,9H6M26,9H21V5H29M29,0V9H37V0M33,0V9" transform="translate(224,145.2) scale(1.4)"/>
    <!-- tb1 at x=280 -->
    <path d="M0,1H26M1,10V5H9V9H17V5H12M4,9H6M26,9H21V5H29M29,0V9H37V0M33,0V9" transform="translate(280,0) scale(1.4)"/>
    <path d="M0,7H9M10,7H19" transform="translate(280,0) scale(2.8)"/>
    <path d="M0,7H9M10,7H19" transform="translate(280,120) scale(2.8)"/>
    <path d="M0,1H26M1,10V5H9V9H17V5H12M4,9H6M26,9H21V5H29M29,0V9H37V0M33,0V9" transform="translate(280,145.2) scale(1.4)"/>
    <!-- tb1 at x=336 -->
    <path d="M0,1H26M1,10V5H9V9H17V5H12M4,9H6M26,9H21V5H29M29,0V9H37V0M33,0V9" transform="translate(336,0) scale(1.4)"/>
    <path d="M0,7H9M10,7H19" transform="translate(336,0) scale(2.8)"/>
    <path d="M0,7H9M10,7H19" transform="translate(336,120) scale(2.8)"/>
    <path d="M0,1H26M1,10V5H9V9H17V5H12M4,9H6M26,9H21V5H29M29,0V9H37V0M33,0V9" transform="translate(336,145.2) scale(1.4)"/>
    <!-- tb1 at x=392 (tb4 at x=392: tb1 at 392+0) -->
    <path d="M0,1H26M1,10V5H9V9H17V5H12M4,9H6M26,9H21V5H29M29,0V9H37V0M33,0V9" transform="translate(392,0) scale(1.4)"/>
    <path d="M0,7H9M10,7H19" transform="translate(392,0) scale(2.8)"/>
    <path d="M0,7H9M10,7H19" transform="translate(392,120) scale(2.8)"/>
    <path d="M0,1H26M1,10V5H9V9H17V5H12M4,9H6M26,9H21V5H29M29,0V9H37V0M33,0V9" transform="translate(392,145.2) scale(1.4)"/>
    <!-- tb1 at x=448 -->
    <path d="M0,1H26M1,10V5H9V9H17V5H12M4,9H6M26,9H21V5H29M29,0V9H37V0M33,0V9" transform="translate(448,0) scale(1.4)"/>
    <path d="M0,7H9M10,7H19" transform="translate(448,0) scale(2.8)"/>
    <path d="M0,7H9M10,7H19" transform="translate(448,120) scale(2.8)"/>
    <path d="M0,1H26M1,10V5H9V9H17V5H12M4,9H6M26,9H21V5H29M29,0V9H37V0M33,0V9" transform="translate(448,145.2) scale(1.4)"/>
    <!-- tb1 at x=504 -->
    <path d="M0,1H26M1,10V5H9V9H17V5H12M4,9H6M26,9H21V5H29M29,0V9H37V0M33,0V9" transform="translate(504,0) scale(1.4)"/>
    <path d="M0,7H9M10,7H19" transform="translate(504,0) scale(2.8)"/>
    <path d="M0,7H9M10,7H19" transform="translate(504,120) scale(2.8)"/>
    <path d="M0,1H26M1,10V5H9V9H17V5H12M4,9H6M26,9H21V5H29M29,0V9H37V0M33,0V9" transform="translate(504,145.2) scale(1.4)"/>
    <!-- tb1 at x=560 -->
    <path d="M0,1H26M1,10V5H9V9H17V5H12M4,9H6M26,9H21V5H29M29,0V9H37V0M33,0V9" transform="translate(560,0) scale(1.4)"/>
    <path d="M0,7H9M10,7H19" transform="translate(560,0) scale(2.8)"/>
    <path d="M0,7H9M10,7H19" transform="translate(560,120) scale(2.8)"/>
    <path d="M0,1H26M1,10V5H9V9H17V5H12M4,9H6M26,9H21V5H29M29,0V9H37V0M33,0V9" transform="translate(560,145.2) scale(1.4)"/>
  </g>
  <!-- Kufic script border (bottom, between white and red) - mirrored -->
  <g fill="none" stroke="#DA0000" stroke-width="2" transform="translate(8.4,100.4) translate(0,159.2) scale(1,-1) translate(0,-159.2)">
    <!-- Same pattern repeated for bottom border -->
    <path d="M0,1H26M1,10V5H9V9H17V5H12M4,9H6M26,9H21V5H29M29,0V9H37V0M33,0V9" transform="translate(0,0) scale(1.4)"/>
    <path d="M0,7H9M10,7H19" transform="translate(0,0) scale(2.8)"/>
    <path d="M0,7H9M10,7H19" transform="translate(0,120) scale(2.8)"/>
    <path d="M0,1H26M1,10V5H9V9H17V5H12M4,9H6M26,9H21V5H29M29,0V9H37V0M33,0V9" transform="translate(0,145.2) scale(1.4)"/>
    <path d="M0,1H26M1,10V5H9V9H17V5H12M4,9H6M26,9H21V5H29M29,0V9H37V0M33,0V9" transform="translate(56,0) scale(1.4)"/>
    <path d="M0,7H9M10,7H19" transform="translate(56,0) scale(2.8)"/>
    <path d="M0,7H9M10,7H19" transform="translate(56,120) scale(2.8)"/>
    <path d="M0,1H26M1,10V5H9V9H17V5H12M4,9H6M26,9H21V5H29M29,0V9H37V0M33,0V9" transform="translate(56,145.2) scale(1.4)"/>
    <path d="M0,1H26M1,10V5H9V9H17V5H12M4,9H6M26,9H21V5H29M29,0V9H37V0M33,0V9" transform="translate(112,0) scale(1.4)"/>
    <path d="M0,7H9M10,7H19" transform="translate(112,0) scale(2.8)"/>
    <path d="M0,7H9M10,7H19" transform="translate(112,120) scale(2.8)"/>
    <path d="M0,1H26M1,10V5H9V9H17V5H12M4,9H6M26,9H21V5H29M29,0V9H37V0M33,0V9" transform="translate(112,145.2) scale(1.4)"/>
    <path d="M0,1H26M1,10V5H9V9H17V5H12M4,9H6M26,9H21V5H29M29,0V9H37V0M33,0V9" transform="translate(168,0) scale(1.4)"/>
    <path d="M0,7H9M10,7H19" transform="translate(168,0) scale(2.8)"/>
    <path d="M0,7H9M10,7H19" transform="translate(168,120) scale(2.8)"/>
    <path d="M0,1H26M1,10V5H9V9H17V5H12M4,9H6M26,9H21V5H29M29,0V9H37V0M33,0V9" transform="translate(168,145.2) scale(1.4)"/>
    <path d="M0,1H26M1,10V5H9V9H17V5H12M4,9H6M26,9H21V5H29M29,0V9H37V0M33,0V9" transform="translate(224,0) scale(1.4)"/>
    <path d="M0,7H9M10,7H19" transform="translate(224,0) scale(2.8)"/>
    <path d="M0,7H9M10,7H19" transform="translate(224,120) scale(2.8)"/>
    <path d="M0,1H26M1,10V5H9V9H17V5H12M4,9H6M26,9H21V5H29M29,0V9H37V0M33,0V9" transform="translate(224,145.2) scale(1.4)"/>
    <path d="M0,1H26M1,10V5H9V9H17V5H12M4,9H6M26,9H21V5H29M29,0V9H37V0M33,0V9" transform="translate(280,0) scale(1.4)"/>
    <path d="M0,7H9M10,7H19" transform="translate(280,0) scale(2.8)"/>
    <path d="M0,7H9M10,7H19" transform="translate(280,120) scale(2.8)"/>
    <path d="M0,1H26M1,10V5H9V9H17V5H12M4,9H6M26,9H21V5H29M29,0V9H37V0M33,0V9" transform="translate(280,145.2) scale(1.4)"/>
    <path d="M0,1H26M1,10V5H9V9H17V5H12M4,9H6M26,9H21V5H29M29,0V9H37V0M33,0V9" transform="translate(336,0) scale(1.4)"/>
    <path d="M0,7H9M10,7H19" transform="translate(336,0) scale(2.8)"/>
    <path d="M0,7H9M10,7H19" transform="translate(336,120) scale(2.8)"/>
    <path d="M0,1H26M1,10V5H9V9H17V5H12M4,9H6M26,9H21V5H29M29,0V9H37V0M33,0V9" transform="translate(336,145.2) scale(1.4)"/>
    <path d="M0,1H26M1,10V5H9V9H17V5H12M4,9H6M26,9H21V5H29M29,0V9H37V0M33,0V9" transform="translate(392,0) scale(1.4)"/>
    <path d="M0,7H9M10,7H19" transform="translate(392,0) scale(2.8)"/>
    <path d="M0,7H9M10,7H19" transform="translate(392,120) scale(2.8)"/>
    <path d="M0,1H26M1,10V5H9V9H17V5H12M4,9H6M26,9H21V5H29M29,0V9H37V0M33,0V9" transform="translate(392,145.2) scale(1.4)"/>
    <path d="M0,1H26M1,10V5H9V9H17V5H12M4,9H6M26,9H21V5H29M29,0V9H37V0M33,0V9" transform="translate(448,0) scale(1.4)"/>
    <path d="M0,7H9M10,7H19" transform="translate(448,0) scale(2.8)"/>
    <path d="M0,7H9M10,7H19" transform="translate(448,120) scale(2.8)"/>
    <path d="M0,1H26M1,10V5H9V9H17V5H12M4,9H6M26,9H21V5H29M29,0V9H37V0M33,0V9" transform="translate(448,145.2) scale(1.4)"/>
    <path d="M0,1H26M1,10V5H9V9H17V5H12M4,9H6M26,9H21V5H29M29,0V9H37V0M33,0V9" transform="translate(504,0) scale(1.4)"/>
    <path d="M0,7H9M10,7H19" transform="translate(504,0) scale(2.8)"/>
    <path d="M0,7H9M10,7H19" transform="translate(504,120) scale(2.8)"/>
    <path d="M0,1H26M1,10V5H9V9H17V5H12M4,9H6M26,9H21V5H29M29,0V9H37V0M33,0V9" transform="translate(504,145.2) scale(1.4)"/>
    <path d="M0,1H26M1,10V5H9V9H17V5H12M4,9H6M26,9H21V5H29M29,0V9H37V0M33,0V9" transform="translate(560,0) scale(1.4)"/>
    <path d="M0,7H9M10,7H19" transform="translate(560,0) scale(2.8)"/>
    <path d="M0,7H9M10,7H19" transform="translate(560,120) scale(2.8)"/>
    <path d="M0,1H26M1,10V5H9V9H17V5H12M4,9H6M26,9H21V5H29M29,0V9H37V0M33,0V9" transform="translate(560,145.2) scale(1.4)"/>
  </g>
  <!-- Emblem centered at (315, 180) -->
  <g fill="#DA0000" transform="matrix(45,0,0,45,315,180)">
    <path d="M 1.015679,-0.01556 A 0.77528237,0.7752862 0 0 1 0.60199011,0.67052066 1.0040699,1.0040749 0 0 0 0.44435035,-0.74067818 q -0.0221518,-0.0177005 -0.0452767,-0.0341288 A 0.77575926,0.7757631 0 0 1 1.015679,-0.01556 Z"/>
    <path d="m 0.65590144,-0.04683837 a 0.92689013,0.92689472 0 0 1 -1.21301321,0.88105983 q 0.0245198,0.00118 0.0492749,0.001178 a 1.0158759,1.0158809 0 0 0 0.84183925,-1.58419413 0.92423346,0.92423804 0 0 1 0.32189906,0.7019563 z"/>
    <path d="M 0.26154437,-0.94393072 A 0.14154065,0.14154135 0 0 1 1.7299476e-6,-0.86887791 L -0.01707249,-0.88602911 1.7299476e-6,-0.96931462 A 0.1321491,0.13214975 0 0 0 0.24983482,-1.0002001 a 0.14021999,0.14022068 0 0 1 0.0117096,0.0562694 z"/>
    <path d="M 0.11992727,-0.71445117 A 0.31475286,0.31475442 0 0 1 1.2855032e-6,-0.81025163 L -0.0506876,-0.01642556 1.2855032e-6,1.0001998 0.07882572,0.89166862 0.0891995,0.64144186 0.09996594,0.3809197 l 0.0014156,-0.0334002 4.7111e-4,-0.0124172 0.002279,-0.0541474 0.006758,-0.1640148 0.005501,-0.13242286 0.001571,-0.03827263 0.002042,-0.04872535 V -0.71445117 Z M 1.2855032e-6,-0.54965037 9.0174383e-5,-0.54949481 1.2855032e-6,-0.54933925 Z m 0,0.86447753 V 0.3145916 L 3.946188e-4,0.31468049 Z"/>
    <g transform="scale(-1,1)">
      <path d="M 1.015679,-0.01556 A 0.77528237,0.7752862 0 0 1 0.60199011,0.67052066 1.0040699,1.0040749 0 0 0 0.44435035,-0.74067818 q -0.0221518,-0.0177005 -0.0452767,-0.0341288 A 0.77575926,0.7757631 0 0 1 1.015679,-0.01556 Z"/>
      <path d="m 0.65590144,-0.04683837 a 0.92689013,0.92689472 0 0 1 -1.21301321,0.88105983 q 0.0245198,0.00118 0.0492749,0.001178 a 1.0158759,1.0158809 0 0 0 0.84183925,-1.58419413 0.92423346,0.92423804 0 0 1 0.32189906,0.7019563 z"/>
      <path d="M 0.26154437,-0.94393072 A 0.14154065,0.14154135 0 0 1 1.7299476e-6,-0.86887791 L -0.01707249,-0.88602911 1.7299476e-6,-0.96931462 A 0.1321491,0.13214975 0 0 0 0.24983482,-1.0002001 a 0.14021999,0.14022068 0 0 1 0.0117096,0.0562694 z"/>
      <path d="M 0.11992727,-0.71445117 A 0.31475286,0.31475442 0 0 1 1.2855032e-6,-0.81025163 L -0.0506876,-0.01642556 1.2855032e-6,1.0001998 0.07882572,0.89166862 0.0891995,0.64144186 0.09996594,0.3809197 l 0.0014156,-0.0334002 4.7111e-4,-0.0124172 0.002279,-0.0541474 0.006758,-0.1640148 0.005501,-0.13242286 0.001571,-0.03827263 0.002042,-0.04872535 V -0.71445117 Z M 1.2855032e-6,-0.54965037 9.0174383e-5,-0.54949481 1.2855032e-6,-0.54933925 Z m 0,0.86447753 V 0.3145916 L 3.946188e-4,0.31468049 Z"/>
    </g>
  </g>
</svg>
