<svg xmlns="http://www.w3.org/2000/svg" width="1200" height="600">
<defs>
	<clipPath id="Canton">
		<path d="M 0,0 L 600,0 L 600,300 L 0,300 z"/>
	</clipPath>
	<clipPath id="Diagonals">
		<path d="M 0,0 L 300,150 L 0,150 z M 300,0 L 600,0 L 300,150 z M 300,150 L 600,150 L 600,300 z M 300,150 L 300,300 L 0,300 z"/>
	</clipPath>
</defs>
<rect fill="#012169" x="0" y="0" width="1200" height="600"/>
<g>
	<path stroke="#FFF" d="M 0,0 L 600,300 M 0,300 L 600,0" stroke-width="60" clip-path="url(#Canton)"/>
	<path stroke="#C8102E" d="M 0,0 L 600,300 M 0,300 L 600,0" stroke-width="40" clip-path="url(#Diagonals)"/>
	<path stroke="#FFF" d="M 300,0 L 300,300 M 0,150 L 600,150" stroke-width="100" clip-path="url(#Canton)"/>
	<path stroke="#C8102E" d="M 300,0 L 300,300 M 0,150 L 600,150" stroke-width="60" clip-path="url(#Canton)"/>
</g>
<!-- Southern Cross: 4 stars, each white outline + red fill -->
	<!-- Gamma Crucis -->
		<g fill="#FFF" transform="translate(900,120) scale(45.4)">
			<g transform="translate(0,-0.324925)">
			<path d="M 0,0 L 0,0.5 L 1,0 z"/>
			<path d="M 0,0 L 0,-0.5 L 1,0 z" transform="rotate(-36,1,0)"/>
		</g>
			<g transform="scale(-1,1)">
			<g transform="translate(0,-0.324925)">
			<path d="M 0,0 L 0,0.5 L 1,0 z"/>
			<path d="M 0,0 L 0,-0.5 L 1,0 z" transform="rotate(-36,1,0)"/>
		</g>
			</g>
			<g transform="rotate(72,0,0)">
			<g transform="translate(0,-0.324925)">
			<path d="M 0,0 L 0,0.5 L 1,0 z"/>
			<path d="M 0,0 L 0,-0.5 L 1,0 z" transform="rotate(-36,1,0)"/>
		</g>
			</g>
			<g transform="rotate(-72,0,0)">
			<g transform="translate(0,-0.324925)">
			<path d="M 0,0 L 0,0.5 L 1,0 z"/>
			<path d="M 0,0 L 0,-0.5 L 1,0 z" transform="rotate(-36,1,0)"/>
		</g>
			</g>
			<g transform="rotate(-72,0,0) scale(-1,1)">
			<g transform="translate(0,-0.324925)">
			<path d="M 0,0 L 0,0.5 L 1,0 z"/>
			<path d="M 0,0 L 0,-0.5 L 1,0 z" transform="rotate(-36,1,0)"/>
		</g>
			</g>
		</g>
		<g fill="#C8102E" transform="translate(900,120) scale(30)">
			<g transform="translate(0,-0.324925)">
			<path d="M 0,0 L 0,0.5 L 1,0 z"/>
			<path d="M 0,0 L 0,-0.5 L 1,0 z" transform="rotate(-36,1,0)"/>
		</g>
			<g transform="scale(-1,1)">
			<g transform="translate(0,-0.324925)">
			<path d="M 0,0 L 0,0.5 L 1,0 z"/>
			<path d="M 0,0 L 0,-0.5 L 1,0 z" transform="rotate(-36,1,0)"/>
		</g>
			</g>
			<g transform="rotate(72,0,0)">
			<g transform="translate(0,-0.324925)">
			<path d="M 0,0 L 0,0.5 L 1,0 z"/>
			<path d="M 0,0 L 0,-0.5 L 1,0 z" transform="rotate(-36,1,0)"/>
		</g>
			</g>
			<g transform="rotate(-72,0,0)">
			<g transform="translate(0,-0.324925)">
			<path d="M 0,0 L 0,0.5 L 1,0 z"/>
			<path d="M 0,0 L 0,-0.5 L 1,0 z" transform="rotate(-36,1,0)"/>
		</g>
			</g>
			<g transform="rotate(-72,0,0) scale(-1,1)">
			<g transform="translate(0,-0.324925)">
			<path d="M 0,0 L 0,0.5 L 1,0 z"/>
			<path d="M 0,0 L 0,-0.5 L 1,0 z" transform="rotate(-36,1,0)"/>
		</g>
			</g>
		</g>
	<!-- Delta and Beta Crucis (rotated group) -->
	<g transform="rotate(82,900,240)">
		<g fill="#FFF" transform="translate(900,120) rotate(-82) scale(40.4)">
			<g transform="translate(0,-0.324925)">
			<path d="M 0,0 L 0,0.5 L 1,0 z"/>
			<path d="M 0,0 L 0,-0.5 L 1,0 z" transform="rotate(-36,1,0)"/>
		</g>
			<g transform="scale(-1,1)">
			<g transform="translate(0,-0.324925)">
			<path d="M 0,0 L 0,0.5 L 1,0 z"/>
			<path d="M 0,0 L 0,-0.5 L 1,0 z" transform="rotate(-36,1,0)"/>
		</g>
			</g>
			<g transform="rotate(72,0,0)">
			<g transform="translate(0,-0.324925)">
			<path d="M 0,0 L 0,0.5 L 1,0 z"/>
			<path d="M 0,0 L 0,-0.5 L 1,0 z" transform="rotate(-36,1,0)"/>
		</g>
			</g>
			<g transform="rotate(-72,0,0)">
			<g transform="translate(0,-0.324925)">
			<path d="M 0,0 L 0,0.5 L 1,0 z"/>
			<path d="M 0,0 L 0,-0.5 L 1,0 z" transform="rotate(-36,1,0)"/>
		</g>
			</g>
			<g transform="rotate(-72,0,0) scale(-1,1)">
			<g transform="translate(0,-0.324925)">
			<path d="M 0,0 L 0,0.5 L 1,0 z"/>
			<path d="M 0,0 L 0,-0.5 L 1,0 z" transform="rotate(-36,1,0)"/>
		</g>
			</g>
		</g>
		<g fill="#C8102E" transform="translate(900,120) rotate(-82) scale(25)">
			<g transform="translate(0,-0.324925)">
			<path d="M 0,0 L 0,0.5 L 1,0 z"/>
			<path d="M 0,0 L 0,-0.5 L 1,0 z" transform="rotate(-36,1,0)"/>
		</g>
			<g transform="scale(-1,1)">
			<g transform="translate(0,-0.324925)">
			<path d="M 0,0 L 0,0.5 L 1,0 z"/>
			<path d="M 0,0 L 0,-0.5 L 1,0 z" transform="rotate(-36,1,0)"/>
		</g>
			</g>
			<g transform="rotate(72,0,0)">
			<g transform="translate(0,-0.324925)">
			<path d="M 0,0 L 0,0.5 L 1,0 z"/>
			<path d="M 0,0 L 0,-0.5 L 1,0 z" transform="rotate(-36,1,0)"/>
		</g>
			</g>
			<g transform="rotate(-72,0,0)">
			<g transform="translate(0,-0.324925)">
			<path d="M 0,0 L 0,0.5 L 1,0 z"/>
			<path d="M 0,0 L 0,-0.5 L 1,0 z" transform="rotate(-36,1,0)"/>
		</g>
			</g>
			<g transform="rotate(-72,0,0) scale(-1,1)">
			<g transform="translate(0,-0.324925)">
			<path d="M 0,0 L 0,0.5 L 1,0 z"/>
			<path d="M 0,0 L 0,-0.5 L 1,0 z" transform="rotate(-36,1,0)"/>
		</g>
			</g>
		</g>
		<g fill="#FFF" transform="translate(900,380) rotate(-82) scale(45.4)">
			<g transform="translate(0,-0.324925)">
			<path d="M 0,0 L 0,0.5 L 1,0 z"/>
			<path d="M 0,0 L 0,-0.5 L 1,0 z" transform="rotate(-36,1,0)"/>
		</g>
			<g transform="scale(-1,1)">
			<g transform="translate(0,-0.324925)">
			<path d="M 0,0 L 0,0.5 L 1,0 z"/>
			<path d="M 0,0 L 0,-0.5 L 1,0 z" transform="rotate(-36,1,0)"/>
		</g>
			</g>
			<g transform="rotate(72,0,0)">
			<g transform="translate(0,-0.324925)">
			<path d="M 0,0 L 0,0.5 L 1,0 z"/>
			<path d="M 0,0 L 0,-0.5 L 1,0 z" transform="rotate(-36,1,0)"/>
		</g>
			</g>
			<g transform="rotate(-72,0,0)">
			<g transform="translate(0,-0.324925)">
			<path d="M 0,0 L 0,0.5 L 1,0 z"/>
			<path d="M 0,0 L 0,-0.5 L 1,0 z" transform="rotate(-36,1,0)"/>
		</g>
			</g>
			<g transform="rotate(-72,0,0) scale(-1,1)">
			<g transform="translate(0,-0.324925)">
			<path d="M 0,0 L 0,0.5 L 1,0 z"/>
			<path d="M 0,0 L 0,-0.5 L 1,0 z" transform="rotate(-36,1,0)"/>
		</g>
			</g>
		</g>
		<g fill="#C8102E" transform="translate(900,380) rotate(-82) scale(30)">
			<g transform="translate(0,-0.324925)">
			<path d="M 0,0 L 0,0.5 L 1,0 z"/>
			<path d="M 0,0 L 0,-0.5 L 1,0 z" transform="rotate(-36,1,0)"/>
		</g>
			<g transform="scale(-1,1)">
			<g transform="translate(0,-0.324925)">
			<path d="M 0,0 L 0,0.5 L 1,0 z"/>
			<path d="M 0,0 L 0,-0.5 L 1,0 z" transform="rotate(-36,1,0)"/>
		</g>
			</g>
			<g transform="rotate(72,0,0)">
			<g transform="translate(0,-0.324925)">
			<path d="M 0,0 L 0,0.5 L 1,0 z"/>
			<path d="M 0,0 L 0,-0.5 L 1,0 z" transform="rotate(-36,1,0)"/>
		</g>
			</g>
			<g transform="rotate(-72,0,0)">
			<g transform="translate(0,-0.324925)">
			<path d="M 0,0 L 0,0.5 L 1,0 z"/>
			<path d="M 0,0 L 0,-0.5 L 1,0 z" transform="rotate(-36,1,0)"/>
		</g>
			</g>
			<g transform="rotate(-72,0,0) scale(-1,1)">
			<g transform="translate(0,-0.324925)">
			<path d="M 0,0 L 0,0.5 L 1,0 z"/>
			<path d="M 0,0 L 0,-0.5 L 1,0 z" transform="rotate(-36,1,0)"/>
		</g>
			</g>
		</g>
	</g>
	<!-- Alpha Crucis -->
		<g fill="#FFF" transform="translate(900,480) scale(50.4)">
			<g transform="translate(0,-0.324925)">
			<path d="M 0,0 L 0,0.5 L 1,0 z"/>
			<path d="M 0,0 L 0,-0.5 L 1,0 z" transform="rotate(-36,1,0)"/>
		</g>
			<g transform="scale(-1,1)">
			<g transform="translate(0,-0.324925)">
			<path d="M 0,0 L 0,0.5 L 1,0 z"/>
			<path d="M 0,0 L 0,-0.5 L 1,0 z" transform="rotate(-36,1,0)"/>
		</g>
			</g>
			<g transform="rotate(72,0,0)">
			<g transform="translate(0,-0.324925)">
			<path d="M 0,0 L 0,0.5 L 1,0 z"/>
			<path d="M 0,0 L 0,-0.5 L 1,0 z" transform="rotate(-36,1,0)"/>
		</g>
			</g>
			<g transform="rotate(-72,0,0)">
			<g transform="translate(0,-0.324925)">
			<path d="M 0,0 L 0,0.5 L 1,0 z"/>
			<path d="M 0,0 L 0,-0.5 L 1,0 z" transform="rotate(-36,1,0)"/>
		</g>
			</g>
			<g transform="rotate(-72,0,0) scale(-1,1)">
			<g transform="translate(0,-0.324925)">
			<path d="M 0,0 L 0,0.5 L 1,0 z"/>
			<path d="M 0,0 L 0,-0.5 L 1,0 z" transform="rotate(-36,1,0)"/>
		</g>
			</g>
		</g>
		<g fill="#C8102E" transform="translate(900,480) scale(35)">
			<g transform="translate(0,-0.324925)">
			<path d="M 0,0 L 0,0.5 L 1,0 z"/>
			<path d="M 0,0 L 0,-0.5 L 1,0 z" transform="rotate(-36,1,0)"/>
		</g>
			<g transform="scale(-1,1)">
			<g transform="translate(0,-0.324925)">
			<path d="M 0,0 L 0,0.5 L 1,0 z"/>
			<path d="M 0,0 L 0,-0.5 L 1,0 z" transform="rotate(-36,1,0)"/>
		</g>
			</g>
			<g transform="rotate(72,0,0)">
			<g transform="translate(0,-0.324925)">
			<path d="M 0,0 L 0,0.5 L 1,0 z"/>
			<path d="M 0,0 L 0,-0.5 L 1,0 z" transform="rotate(-36,1,0)"/>
		</g>
			</g>
			<g transform="rotate(-72,0,0)">
			<g transform="translate(0,-0.324925)">
			<path d="M 0,0 L 0,0.5 L 1,0 z"/>
			<path d="M 0,0 L 0,-0.5 L 1,0 z" transform="rotate(-36,1,0)"/>
		</g>
			</g>
			<g transform="rotate(-72,0,0) scale(-1,1)">
			<g transform="translate(0,-0.324925)">
			<path d="M 0,0 L 0,0.5 L 1,0 z"/>
			<path d="M 0,0 L 0,-0.5 L 1,0 z" transform="rotate(-36,1,0)"/>
		</g>
			</g>
		</g>
</svg>
