<svg xmlns="http://www.w3.org/2000/svg" width="1200" height="600" viewBox="-35 -30 200 100">
<clipPath id="A"><path d="M-35-30h200V70H-35z"/></clipPath>
<path fill="#215b33" d="M-35-30h200V70H-35z"/>
<path d="M-35 70V-30h200" fill="#0051ba"/>
<path d="M165-30L-35 70" stroke-width="9" stroke="#fcd116" clip-path="url(#A)"/>
<g fill="#fff" transform="scale(10)">
<path d="M0-1l-.309.951.476.155z"/>
<g transform="scale(-1 1)"><path d="M0-1l-.309.951.476.155z"/></g>
<g transform="rotate(72)"><path d="M0-1l-.309.951.476.155z"/></g>
<g transform="rotate(72) scale(-1 1)"><path d="M0-1l-.309.951.476.155z"/></g>
<g transform="rotate(144)"><path d="M0-1l-.309.951.476.155z"/></g>
<g transform="rotate(144) scale(-1 1)"><path d="M0-1l-.309.951.476.155z"/></g>
<g transform="rotate(216)"><path d="M0-1l-.309.951.476.155z"/></g>
<g transform="rotate(216) scale(-1 1)"><path d="M0-1l-.309.951.476.155z"/></g>
<g transform="rotate(288)"><path d="M0-1l-.309.951.476.155z"/></g>
<g transform="rotate(288) scale(-1 1)"><path d="M0-1l-.309.951.476.155z"/></g>
</g>
<g fill="#fff" transform="translate(19.741054,-16.92013) scale(10)">
<path d="M0-1l-.309.951.476.155z"/>
<g transform="scale(-1 1)"><path d="M0-1l-.309.951.476.155z"/></g>
<g transform="rotate(72)"><path d="M0-1l-.309.951.476.155z"/></g>
<g transform="rotate(72) scale(-1 1)"><path d="M0-1l-.309.951.476.155z"/></g>
<g transform="rotate(144)"><path d="M0-1l-.309.951.476.155z"/></g>
<g transform="rotate(144) scale(-1 1)"><path d="M0-1l-.309.951.476.155z"/></g>
<g transform="rotate(216)"><path d="M0-1l-.309.951.476.155z"/></g>
<g transform="rotate(216) scale(-1 1)"><path d="M0-1l-.309.951.476.155z"/></g>
<g transform="rotate(288)"><path d="M0-1l-.309.951.476.155z"/></g>
<g transform="rotate(288) scale(-1 1)"><path d="M0-1l-.309.951.476.155z"/></g>
</g>
<g fill="#fff" transform="translate(19.741054,16.92013) scale(10)">
<path d="M0-1l-.309.951.476.155z"/>
<g transform="scale(-1 1)"><path d="M0-1l-.309.951.476.155z"/></g>
<g transform="rotate(72)"><path d="M0-1l-.309.951.476.155z"/></g>
<g transform="rotate(72) scale(-1 1)"><path d="M0-1l-.309.951.476.155z"/></g>
<g transform="rotate(144)"><path d="M0-1l-.309.951.476.155z"/></g>
<g transform="rotate(144) scale(-1 1)"><path d="M0-1l-.309.951.476.155z"/></g>
<g transform="rotate(216)"><path d="M0-1l-.309.951.476.155z"/></g>
<g transform="rotate(216) scale(-1 1)"><path d="M0-1l-.309.951.476.155z"/></g>
<g transform="rotate(288)"><path d="M0-1l-.309.951.476.155z"/></g>
<g transform="rotate(288) scale(-1 1)"><path d="M0-1l-.309.951.476.155z"/></g>
</g>
<g fill="#fff" transform="translate(-19.741054,16.92013) scale(10)">
<path d="M0-1l-.309.951.476.155z"/>
<g transform="scale(-1 1)"><path d="M0-1l-.309.951.476.155z"/></g>
<g transform="rotate(72)"><path d="M0-1l-.309.951.476.155z"/></g>
<g transform="rotate(72) scale(-1 1)"><path d="M0-1l-.309.951.476.155z"/></g>
<g transform="rotate(144)"><path d="M0-1l-.309.951.476.155z"/></g>
<g transform="rotate(144) scale(-1 1)"><path d="M0-1l-.309.951.476.155z"/></g>
<g transform="rotate(216)"><path d="M0-1l-.309.951.476.155z"/></g>
<g transform="rotate(216) scale(-1 1)"><path d="M0-1l-.309.951.476.155z"/></g>
<g transform="rotate(288)"><path d="M0-1l-.309.951.476.155z"/></g>
<g transform="rotate(288) scale(-1 1)"><path d="M0-1l-.309.951.476.155z"/></g>
</g>
<g fill="#fff" transform="translate(-19.741054,-16.92013) scale(10)">
<path d="M0-1l-.309.951.476.155z"/>
<g transform="scale(-1 1)"><path d="M0-1l-.309.951.476.155z"/></g>
<g transform="rotate(72)"><path d="M0-1l-.309.951.476.155z"/></g>
<g transform="rotate(72) scale(-1 1)"><path d="M0-1l-.309.951.476.155z"/></g>
<g transform="rotate(144)"><path d="M0-1l-.309.951.476.155z"/></g>
<g transform="rotate(144) scale(-1 1)"><path d="M0-1l-.309.951.476.155z"/></g>
<g transform="rotate(216)"><path d="M0-1l-.309.951.476.155z"/></g>
<g transform="rotate(216) scale(-1 1)"><path d="M0-1l-.309.951.476.155z"/></g>
<g transform="rotate(288)"><path d="M0-1l-.309.951.476.155z"/></g>
<g transform="rotate(288) scale(-1 1)"><path d="M0-1l-.309.951.476.155z"/></g>
</g>
</svg>