<svg xmlns="http://www.w3.org/2000/svg" width="1200" height="600" viewBox="0 0 120 60" fill="#FEDD00">
  <defs>
    <clipPath id="f">
      <path d="M0 0h120v60H0z"/>
    </clipPath>
    <clipPath id="s">
      <path d="M0 0v15h62v16zM0 30v1h30V0h30z"/>
    </clipPath>
  </defs>
  <path fill="#012169" d="M0 0h120v60H0z"/>
  <g clip-path="url(#f)" fill="none" stroke="#C8102E" stroke-width="6">
    <path stroke="#FFF" d="M0 0 60 30M0 30 60 0"/>
    <path stroke-width="4" clip-path="url(#s)" d="M0 0 60 30M0 30 60 0"/>
    <path stroke="#FFF" stroke-width="10" d="M30 0v31M0 15h62"/>
    <path d="M30 0v31M0 15h62"/>
  </g>
  <path fill="#009CDE" d="M60 0h60v60H0V30h60z"/>
  <path transform="translate(65.5,54)" d="m0-5.2573 3.0902 9.5106L-5-1.6246H5l-8.0902 5.8779z"/>
  <path transform="translate(78,38.5)" d="m0 5.2573-3.0902-9.5106L5 1.6246H-5l8.0902-5.8779z"/>
  <path transform="translate(78,51)" d="m0 5.2573-3.0902-9.5106L5 1.6246H-5l8.0902-5.8779z"/>
  <path transform="translate(90.5,21.5)" d="m0 5.2573-3.0902-9.5106L5 1.6246H-5l8.0902-5.8779z"/>
  <path transform="translate(90.5,47.5)" d="m0 5.2573-3.0902-9.5106L5 1.6246H-5l8.0902-5.8779z"/>
  <path transform="translate(101,17.5)" d="m0 5.2573-3.0902-9.5106L5 1.6246H-5l8.0902-5.8779z"/>
  <path transform="translate(101,38.5)" d="m0-5.2573 3.0902 9.5106L-5-1.6246H5l-8.0902 5.8779z"/>
  <path transform="translate(111.5,8)" d="m0-5.2573 3.0902 9.5106L-5-1.6246H5l-8.0902 5.8779z"/>
  <path transform="translate(111.5,32)" d="m0-5.2573 3.0902 9.5106L-5-1.6246H5l-8.0902 5.8779z"/>
</svg>
