<svg xmlns="http://www.w3.org/2000/svg" width="900" height="600" viewBox="0 0 180 120">
  <path d="M 0,0 H 180 V 120 H 0 Z" fill="#CF142B" />
  <path d="M 0,80 H 180 V 0 H 0 Z" fill="#00247D" />
  <path d="M 0,0 H 180 V 40 H 0 Z" fill="#FC0" />
  <g transform="translate(0 .2422087)" stroke-width="0.96302092">
    <g transform="rotate(-70 105.506451 -23.4739353) scale(1.0383988)"><g transform="translate(0 -36)">
      <g>
        <g>
          <path d="M0,-5V0H3z" fill="#FFF" transform="rotate(18 0 -5)" />
          <g transform="scale(-1 1)"><path d="M0,-5V0H3z" fill="#FFF" transform="rotate(18 0 -5)" />
          </g></g>
        <g transform="rotate(72)"><g>
          <path d="M0,-5V0H3z" fill="#FFF" transform="rotate(18 0 -5)" />
          <g transform="scale(-1 1)"><path d="M0,-5V0H3z" fill="#FFF" transform="rotate(18 0 -5)" />
          </g></g>
        </g></g>
      <g transform="rotate(-72)"><g>
          <path d="M0,-5V0H3z" fill="#FFF" transform="rotate(18 0 -5)" />
          <g transform="scale(-1 1)"><path d="M0,-5V0H3z" fill="#FFF" transform="rotate(18 0 -5)" />
          </g></g>
        </g><g transform="rotate(144)"><g>
        <g>
          <path d="M0,-5V0H3z" fill="#FFF" transform="rotate(18 0 -5)" />
          <g transform="scale(-1 1)"><path d="M0,-5V0H3z" fill="#FFF" transform="rotate(18 0 -5)" />
          </g></g>
        <g transform="rotate(72)"><g>
          <path d="M0,-5V0H3z" fill="#FFF" transform="rotate(18 0 -5)" />
          <g transform="scale(-1 1)"><path d="M0,-5V0H3z" fill="#FFF" transform="rotate(18 0 -5)" />
          </g></g>
        </g></g>
      </g></g>
  </g><g transform="rotate(-45.93376 147.3700758 -62.4017001) scale(1.0383988)"><g transform="translate(0 -36)">
      <g>
        <g>
          <path d="M0,-5V0H3z" fill="#FFF" transform="rotate(18 0 -5)" />
          <g transform="scale(-1 1)"><path d="M0,-5V0H3z" fill="#FFF" transform="rotate(18 0 -5)" />
          </g></g>
        <g transform="rotate(72)"><g>
          <path d="M0,-5V0H3z" fill="#FFF" transform="rotate(18 0 -5)" />
          <g transform="scale(-1 1)"><path d="M0,-5V0H3z" fill="#FFF" transform="rotate(18 0 -5)" />
          </g></g>
        </g></g>
      <g transform="rotate(-72)"><g>
          <path d="M0,-5V0H3z" fill="#FFF" transform="rotate(18 0 -5)" />
          <g transform="scale(-1 1)"><path d="M0,-5V0H3z" fill="#FFF" transform="rotate(18 0 -5)" />
          </g></g>
        </g><g transform="rotate(144)"><g>
        <g>
          <path d="M0,-5V0H3z" fill="#FFF" transform="rotate(18 0 -5)" />
          <g transform="scale(-1 1)"><path d="M0,-5V0H3z" fill="#FFF" transform="rotate(18 0 -5)" />
          </g></g>
        <g transform="rotate(72)"><g>
          <path d="M0,-5V0H3z" fill="#FFF" transform="rotate(18 0 -5)" />
          <g transform="scale(-1 1)"><path d="M0,-5V0H3z" fill="#FFF" transform="rotate(18 0 -5)" />
          </g></g>
        </g></g>
      </g></g>
  </g><g transform="rotate(-30 205.590447 -127.0402897) scale(1.0383988)"><g transform="translate(0 -36)">
      <g>
        <g>
          <path d="M0,-5V0H3z" fill="#FFF" transform="rotate(18 0 -5)" />
          <g transform="scale(-1 1)"><path d="M0,-5V0H3z" fill="#FFF" transform="rotate(18 0 -5)" />
          </g></g>
        <g transform="rotate(72)"><g>
          <path d="M0,-5V0H3z" fill="#FFF" transform="rotate(18 0 -5)" />
          <g transform="scale(-1 1)"><path d="M0,-5V0H3z" fill="#FFF" transform="rotate(18 0 -5)" />
          </g></g>
        </g></g>
      <g transform="rotate(-72)"><g>
          <path d="M0,-5V0H3z" fill="#FFF" transform="rotate(18 0 -5)" />
          <g transform="scale(-1 1)"><path d="M0,-5V0H3z" fill="#FFF" transform="rotate(18 0 -5)" />
          </g></g>
        </g><g transform="rotate(144)"><g>
        <g>
          <path d="M0,-5V0H3z" fill="#FFF" transform="rotate(18 0 -5)" />
          <g transform="scale(-1 1)"><path d="M0,-5V0H3z" fill="#FFF" transform="rotate(18 0 -5)" />
          </g></g>
        <g transform="rotate(72)"><g>
          <path d="M0,-5V0H3z" fill="#FFF" transform="rotate(18 0 -5)" />
          <g transform="scale(-1 1)"><path d="M0,-5V0H3z" fill="#FFF" transform="rotate(18 0 -5)" />
          </g></g>
        </g></g>
      </g></g>
  </g><g transform="rotate(-10 537.6970712 -472.5906531) scale(1.0383988)"><g transform="translate(0 -36)">
      <g>
        <g>
          <path d="M0,-5V0H3z" fill="#FFF" transform="rotate(18 0 -5)" />
          <g transform="scale(-1 1)"><path d="M0,-5V0H3z" fill="#FFF" transform="rotate(18 0 -5)" />
          </g></g>
        <g transform="rotate(72)"><g>
          <path d="M0,-5V0H3z" fill="#FFF" transform="rotate(18 0 -5)" />
          <g transform="scale(-1 1)"><path d="M0,-5V0H3z" fill="#FFF" transform="rotate(18 0 -5)" />
          </g></g>
        </g></g>
      <g transform="rotate(-72)"><g>
          <path d="M0,-5V0H3z" fill="#FFF" transform="rotate(18 0 -5)" />
          <g transform="scale(-1 1)"><path d="M0,-5V0H3z" fill="#FFF" transform="rotate(18 0 -5)" />
          </g></g>
        </g><g transform="rotate(144)"><g>
        <g>
          <path d="M0,-5V0H3z" fill="#FFF" transform="rotate(18 0 -5)" />
          <g transform="scale(-1 1)"><path d="M0,-5V0H3z" fill="#FFF" transform="rotate(18 0 -5)" />
          </g></g>
        <g transform="rotate(72)"><g>
          <path d="M0,-5V0H3z" fill="#FFF" transform="rotate(18 0 -5)" />
          <g transform="scale(-1 1)"><path d="M0,-5V0H3z" fill="#FFF" transform="rotate(18 0 -5)" />
          </g></g>
        </g></g>
      </g></g>
  </g><g transform="matrix(-1 0 0 1 180.05129 .0000092)">
      <g transform="rotate(-70 105.506451 -23.4739353) scale(1.0383988)"><g transform="translate(0 -36)">
      <g>
        <g>
          <path d="M0,-5V0H3z" fill="#FFF" transform="rotate(18 0 -5)" />
          <g transform="scale(-1 1)"><path d="M0,-5V0H3z" fill="#FFF" transform="rotate(18 0 -5)" />
          </g></g>
        <g transform="rotate(72)"><g>
          <path d="M0,-5V0H3z" fill="#FFF" transform="rotate(18 0 -5)" />
          <g transform="scale(-1 1)"><path d="M0,-5V0H3z" fill="#FFF" transform="rotate(18 0 -5)" />
          </g></g>
        </g></g>
      <g transform="rotate(-72)"><g>
          <path d="M0,-5V0H3z" fill="#FFF" transform="rotate(18 0 -5)" />
          <g transform="scale(-1 1)"><path d="M0,-5V0H3z" fill="#FFF" transform="rotate(18 0 -5)" />
          </g></g>
        </g><g transform="rotate(144)"><g>
        <g>
          <path d="M0,-5V0H3z" fill="#FFF" transform="rotate(18 0 -5)" />
          <g transform="scale(-1 1)"><path d="M0,-5V0H3z" fill="#FFF" transform="rotate(18 0 -5)" />
          </g></g>
        <g transform="rotate(72)"><g>
          <path d="M0,-5V0H3z" fill="#FFF" transform="rotate(18 0 -5)" />
          <g transform="scale(-1 1)"><path d="M0,-5V0H3z" fill="#FFF" transform="rotate(18 0 -5)" />
          </g></g>
        </g></g>
      </g></g>
  </g><g transform="rotate(-45.93376 147.3700758 -62.4017001) scale(1.0383988)"><g transform="translate(0 -36)">
      <g>
        <g>
          <path d="M0,-5V0H3z" fill="#FFF" transform="rotate(18 0 -5)" />
          <g transform="scale(-1 1)"><path d="M0,-5V0H3z" fill="#FFF" transform="rotate(18 0 -5)" />
          </g></g>
        <g transform="rotate(72)"><g>
          <path d="M0,-5V0H3z" fill="#FFF" transform="rotate(18 0 -5)" />
          <g transform="scale(-1 1)"><path d="M0,-5V0H3z" fill="#FFF" transform="rotate(18 0 -5)" />
          </g></g>
        </g></g>
      <g transform="rotate(-72)"><g>
          <path d="M0,-5V0H3z" fill="#FFF" transform="rotate(18 0 -5)" />
          <g transform="scale(-1 1)"><path d="M0,-5V0H3z" fill="#FFF" transform="rotate(18 0 -5)" />
          </g></g>
        </g><g transform="rotate(144)"><g>
        <g>
          <path d="M0,-5V0H3z" fill="#FFF" transform="rotate(18 0 -5)" />
          <g transform="scale(-1 1)"><path d="M0,-5V0H3z" fill="#FFF" transform="rotate(18 0 -5)" />
          </g></g>
        <g transform="rotate(72)"><g>
          <path d="M0,-5V0H3z" fill="#FFF" transform="rotate(18 0 -5)" />
          <g transform="scale(-1 1)"><path d="M0,-5V0H3z" fill="#FFF" transform="rotate(18 0 -5)" />
          </g></g>
        </g></g>
      </g></g>
  </g><g transform="rotate(-30 205.590447 -127.0402897) scale(1.0383988)"><g transform="translate(0 -36)">
      <g>
        <g>
          <path d="M0,-5V0H3z" fill="#FFF" transform="rotate(18 0 -5)" />
          <g transform="scale(-1 1)"><path d="M0,-5V0H3z" fill="#FFF" transform="rotate(18 0 -5)" />
          </g></g>
        <g transform="rotate(72)"><g>
          <path d="M0,-5V0H3z" fill="#FFF" transform="rotate(18 0 -5)" />
          <g transform="scale(-1 1)"><path d="M0,-5V0H3z" fill="#FFF" transform="rotate(18 0 -5)" />
          </g></g>
        </g></g>
      <g transform="rotate(-72)"><g>
          <path d="M0,-5V0H3z" fill="#FFF" transform="rotate(18 0 -5)" />
          <g transform="scale(-1 1)"><path d="M0,-5V0H3z" fill="#FFF" transform="rotate(18 0 -5)" />
          </g></g>
        </g><g transform="rotate(144)"><g>
        <g>
          <path d="M0,-5V0H3z" fill="#FFF" transform="rotate(18 0 -5)" />
          <g transform="scale(-1 1)"><path d="M0,-5V0H3z" fill="#FFF" transform="rotate(18 0 -5)" />
          </g></g>
        <g transform="rotate(72)"><g>
          <path d="M0,-5V0H3z" fill="#FFF" transform="rotate(18 0 -5)" />
          <g transform="scale(-1 1)"><path d="M0,-5V0H3z" fill="#FFF" transform="rotate(18 0 -5)" />
          </g></g>
        </g></g>
      </g></g>
  </g><g transform="rotate(-10 537.6970712 -472.5906531) scale(1.0383988)"><g transform="translate(0 -36)">
      <g>
        <g>
          <path d="M0,-5V0H3z" fill="#FFF" transform="rotate(18 0 -5)" />
          <g transform="scale(-1 1)"><path d="M0,-5V0H3z" fill="#FFF" transform="rotate(18 0 -5)" />
          </g></g>
        <g transform="rotate(72)"><g>
          <path d="M0,-5V0H3z" fill="#FFF" transform="rotate(18 0 -5)" />
          <g transform="scale(-1 1)"><path d="M0,-5V0H3z" fill="#FFF" transform="rotate(18 0 -5)" />
          </g></g>
        </g></g>
      <g transform="rotate(-72)"><g>
          <path d="M0,-5V0H3z" fill="#FFF" transform="rotate(18 0 -5)" />
          <g transform="scale(-1 1)"><path d="M0,-5V0H3z" fill="#FFF" transform="rotate(18 0 -5)" />
          </g></g>
        </g><g transform="rotate(144)"><g>
        <g>
          <path d="M0,-5V0H3z" fill="#FFF" transform="rotate(18 0 -5)" />
          <g transform="scale(-1 1)"><path d="M0,-5V0H3z" fill="#FFF" transform="rotate(18 0 -5)" />
          </g></g>
        <g transform="rotate(72)"><g>
          <path d="M0,-5V0H3z" fill="#FFF" transform="rotate(18 0 -5)" />
          <g transform="scale(-1 1)"><path d="M0,-5V0H3z" fill="#FFF" transform="rotate(18 0 -5)" />
          </g></g>
        </g></g>
      </g></g>
  </g></g>
  </g>
<g transform="scale(-1 1)"><path d="M0,-5V0H3z" fill="#FFF" transform="rotate(18 0 -5)" />
          </g><g transform="rotate(72)"><g>
          <path d="M0,-5V0H3z" fill="#FFF" transform="rotate(18 0 -5)" />
          <g transform="scale(-1 1)"><path d="M0,-5V0H3z" fill="#FFF" transform="rotate(18 0 -5)" />
          </g></g>
        </g><g transform="rotate(-72)"><g>
          <path d="M0,-5V0H3z" fill="#FFF" transform="rotate(18 0 -5)" />
          <g transform="scale(-1 1)"><path d="M0,-5V0H3z" fill="#FFF" transform="rotate(18 0 -5)" />
          </g></g>
        </g><g transform="rotate(144)"><g>
        <g>
          <path d="M0,-5V0H3z" fill="#FFF" transform="rotate(18 0 -5)" />
          <g transform="scale(-1 1)"><path d="M0,-5V0H3z" fill="#FFF" transform="rotate(18 0 -5)" />
          </g></g>
        <g transform="rotate(72)"><g>
          <path d="M0,-5V0H3z" fill="#FFF" transform="rotate(18 0 -5)" />
          <g transform="scale(-1 1)"><path d="M0,-5V0H3z" fill="#FFF" transform="rotate(18 0 -5)" />
          </g></g>
        </g></g>
      </g><g transform="rotate(-70 105.506451 -23.4739353) scale(1.0383988)"><g transform="translate(0 -36)">
      <g>
        <g>
          <path d="M0,-5V0H3z" fill="#FFF" transform="rotate(18 0 -5)" />
          <g transform="scale(-1 1)"><path d="M0,-5V0H3z" fill="#FFF" transform="rotate(18 0 -5)" />
          </g></g>
        <g transform="rotate(72)"><g>
          <path d="M0,-5V0H3z" fill="#FFF" transform="rotate(18 0 -5)" />
          <g transform="scale(-1 1)"><path d="M0,-5V0H3z" fill="#FFF" transform="rotate(18 0 -5)" />
          </g></g>
        </g></g>
      <g transform="rotate(-72)"><g>
          <path d="M0,-5V0H3z" fill="#FFF" transform="rotate(18 0 -5)" />
          <g transform="scale(-1 1)"><path d="M0,-5V0H3z" fill="#FFF" transform="rotate(18 0 -5)" />
          </g></g>
        </g><g transform="rotate(144)"><g>
        <g>
          <path d="M0,-5V0H3z" fill="#FFF" transform="rotate(18 0 -5)" />
          <g transform="scale(-1 1)"><path d="M0,-5V0H3z" fill="#FFF" transform="rotate(18 0 -5)" />
          </g></g>
        <g transform="rotate(72)"><g>
          <path d="M0,-5V0H3z" fill="#FFF" transform="rotate(18 0 -5)" />
          <g transform="scale(-1 1)"><path d="M0,-5V0H3z" fill="#FFF" transform="rotate(18 0 -5)" />
          </g></g>
        </g></g>
      </g></g>
  </g><g transform="rotate(-45.93376 147.3700758 -62.4017001) scale(1.0383988)"><g transform="translate(0 -36)">
      <g>
        <g>
          <path d="M0,-5V0H3z" fill="#FFF" transform="rotate(18 0 -5)" />
          <g transform="scale(-1 1)"><path d="M0,-5V0H3z" fill="#FFF" transform="rotate(18 0 -5)" />
          </g></g>
        <g transform="rotate(72)"><g>
          <path d="M0,-5V0H3z" fill="#FFF" transform="rotate(18 0 -5)" />
          <g transform="scale(-1 1)"><path d="M0,-5V0H3z" fill="#FFF" transform="rotate(18 0 -5)" />
          </g></g>
        </g></g>
      <g transform="rotate(-72)"><g>
          <path d="M0,-5V0H3z" fill="#FFF" transform="rotate(18 0 -5)" />
          <g transform="scale(-1 1)"><path d="M0,-5V0H3z" fill="#FFF" transform="rotate(18 0 -5)" />
          </g></g>
        </g><g transform="rotate(144)"><g>
        <g>
          <path d="M0,-5V0H3z" fill="#FFF" transform="rotate(18 0 -5)" />
          <g transform="scale(-1 1)"><path d="M0,-5V0H3z" fill="#FFF" transform="rotate(18 0 -5)" />
          </g></g>
        <g transform="rotate(72)"><g>
          <path d="M0,-5V0H3z" fill="#FFF" transform="rotate(18 0 -5)" />
          <g transform="scale(-1 1)"><path d="M0,-5V0H3z" fill="#FFF" transform="rotate(18 0 -5)" />
          </g></g>
        </g></g>
      </g></g>
  </g><g transform="rotate(-30 205.590447 -127.0402897) scale(1.0383988)"><g transform="translate(0 -36)">
      <g>
        <g>
          <path d="M0,-5V0H3z" fill="#FFF" transform="rotate(18 0 -5)" />
          <g transform="scale(-1 1)"><path d="M0,-5V0H3z" fill="#FFF" transform="rotate(18 0 -5)" />
          </g></g>
        <g transform="rotate(72)"><g>
          <path d="M0,-5V0H3z" fill="#FFF" transform="rotate(18 0 -5)" />
          <g transform="scale(-1 1)"><path d="M0,-5V0H3z" fill="#FFF" transform="rotate(18 0 -5)" />
          </g></g>
        </g></g>
      <g transform="rotate(-72)"><g>
          <path d="M0,-5V0H3z" fill="#FFF" transform="rotate(18 0 -5)" />
          <g transform="scale(-1 1)"><path d="M0,-5V0H3z" fill="#FFF" transform="rotate(18 0 -5)" />
          </g></g>
        </g><g transform="rotate(144)"><g>
        <g>
          <path d="M0,-5V0H3z" fill="#FFF" transform="rotate(18 0 -5)" />
          <g transform="scale(-1 1)"><path d="M0,-5V0H3z" fill="#FFF" transform="rotate(18 0 -5)" />
          </g></g>
        <g transform="rotate(72)"><g>
          <path d="M0,-5V0H3z" fill="#FFF" transform="rotate(18 0 -5)" />
          <g transform="scale(-1 1)"><path d="M0,-5V0H3z" fill="#FFF" transform="rotate(18 0 -5)" />
          </g></g>
        </g></g>
      </g></g>
  </g><g transform="rotate(-10 537.6970712 -472.5906531) scale(1.0383988)"><g transform="translate(0 -36)">
      <g>
        <g>
          <path d="M0,-5V0H3z" fill="#FFF" transform="rotate(18 0 -5)" />
          <g transform="scale(-1 1)"><path d="M0,-5V0H3z" fill="#FFF" transform="rotate(18 0 -5)" />
          </g></g>
        <g transform="rotate(72)"><g>
          <path d="M0,-5V0H3z" fill="#FFF" transform="rotate(18 0 -5)" />
          <g transform="scale(-1 1)"><path d="M0,-5V0H3z" fill="#FFF" transform="rotate(18 0 -5)" />
          </g></g>
        </g></g>
      <g transform="rotate(-72)"><g>
          <path d="M0,-5V0H3z" fill="#FFF" transform="rotate(18 0 -5)" />
          <g transform="scale(-1 1)"><path d="M0,-5V0H3z" fill="#FFF" transform="rotate(18 0 -5)" />
          </g></g>
        </g><g transform="rotate(144)"><g>
        <g>
          <path d="M0,-5V0H3z" fill="#FFF" transform="rotate(18 0 -5)" />
          <g transform="scale(-1 1)"><path d="M0,-5V0H3z" fill="#FFF" transform="rotate(18 0 -5)" />
          </g></g>
        <g transform="rotate(72)"><g>
          <path d="M0,-5V0H3z" fill="#FFF" transform="rotate(18 0 -5)" />
          <g transform="scale(-1 1)"><path d="M0,-5V0H3z" fill="#FFF" transform="rotate(18 0 -5)" />
          </g></g>
        </g></g>
      </g></g>
  </g><g transform="rotate(-70 105.506451 -23.4739353) scale(1.0383988)"><g transform="translate(0 -36)">
      <g>
        <g>
          <path d="M0,-5V0H3z" fill="#FFF" transform="rotate(18 0 -5)" />
          <g transform="scale(-1 1)"><path d="M0,-5V0H3z" fill="#FFF" transform="rotate(18 0 -5)" />
          </g></g>
        <g transform="rotate(72)"><g>
          <path d="M0,-5V0H3z" fill="#FFF" transform="rotate(18 0 -5)" />
          <g transform="scale(-1 1)"><path d="M0,-5V0H3z" fill="#FFF" transform="rotate(18 0 -5)" />
          </g></g>
        </g></g>
      <g transform="rotate(-72)"><g>
          <path d="M0,-5V0H3z" fill="#FFF" transform="rotate(18 0 -5)" />
          <g transform="scale(-1 1)"><path d="M0,-5V0H3z" fill="#FFF" transform="rotate(18 0 -5)" />
          </g></g>
        </g><g transform="rotate(144)"><g>
        <g>
          <path d="M0,-5V0H3z" fill="#FFF" transform="rotate(18 0 -5)" />
          <g transform="scale(-1 1)"><path d="M0,-5V0H3z" fill="#FFF" transform="rotate(18 0 -5)" />
          </g></g>
        <g transform="rotate(72)"><g>
          <path d="M0,-5V0H3z" fill="#FFF" transform="rotate(18 0 -5)" />
          <g transform="scale(-1 1)"><path d="M0,-5V0H3z" fill="#FFF" transform="rotate(18 0 -5)" />
          </g></g>
        </g></g>
      </g></g>
  </g><g transform="rotate(-45.93376 147.3700758 -62.4017001) scale(1.0383988)"><g transform="translate(0 -36)">
      <g>
        <g>
          <path d="M0,-5V0H3z" fill="#FFF" transform="rotate(18 0 -5)" />
          <g transform="scale(-1 1)"><path d="M0,-5V0H3z" fill="#FFF" transform="rotate(18 0 -5)" />
          </g></g>
        <g transform="rotate(72)"><g>
          <path d="M0,-5V0H3z" fill="#FFF" transform="rotate(18 0 -5)" />
          <g transform="scale(-1 1)"><path d="M0,-5V0H3z" fill="#FFF" transform="rotate(18 0 -5)" />
          </g></g>
        </g></g>
      <g transform="rotate(-72)"><g>
          <path d="M0,-5V0H3z" fill="#FFF" transform="rotate(18 0 -5)" />
          <g transform="scale(-1 1)"><path d="M0,-5V0H3z" fill="#FFF" transform="rotate(18 0 -5)" />
          </g></g>
        </g><g transform="rotate(144)"><g>
        <g>
          <path d="M0,-5V0H3z" fill="#FFF" transform="rotate(18 0 -5)" />
          <g transform="scale(-1 1)"><path d="M0,-5V0H3z" fill="#FFF" transform="rotate(18 0 -5)" />
          </g></g>
        <g transform="rotate(72)"><g>
          <path d="M0,-5V0H3z" fill="#FFF" transform="rotate(18 0 -5)" />
          <g transform="scale(-1 1)"><path d="M0,-5V0H3z" fill="#FFF" transform="rotate(18 0 -5)" />
          </g></g>
        </g></g>
      </g></g>
  </g><g transform="rotate(-30 205.590447 -127.0402897) scale(1.0383988)"><g transform="translate(0 -36)">
      <g>
        <g>
          <path d="M0,-5V0H3z" fill="#FFF" transform="rotate(18 0 -5)" />
          <g transform="scale(-1 1)"><path d="M0,-5V0H3z" fill="#FFF" transform="rotate(18 0 -5)" />
          </g></g>
        <g transform="rotate(72)"><g>
          <path d="M0,-5V0H3z" fill="#FFF" transform="rotate(18 0 -5)" />
          <g transform="scale(-1 1)"><path d="M0,-5V0H3z" fill="#FFF" transform="rotate(18 0 -5)" />
          </g></g>
        </g></g>
      <g transform="rotate(-72)"><g>
          <path d="M0,-5V0H3z" fill="#FFF" transform="rotate(18 0 -5)" />
          <g transform="scale(-1 1)"><path d="M0,-5V0H3z" fill="#FFF" transform="rotate(18 0 -5)" />
          </g></g>
        </g><g transform="rotate(144)"><g>
        <g>
          <path d="M0,-5V0H3z" fill="#FFF" transform="rotate(18 0 -5)" />
          <g transform="scale(-1 1)"><path d="M0,-5V0H3z" fill="#FFF" transform="rotate(18 0 -5)" />
          </g></g>
        <g transform="rotate(72)"><g>
          <path d="M0,-5V0H3z" fill="#FFF" transform="rotate(18 0 -5)" />
          <g transform="scale(-1 1)"><path d="M0,-5V0H3z" fill="#FFF" transform="rotate(18 0 -5)" />
          </g></g>
        </g></g>
      </g></g>
  </g><g transform="rotate(-10 537.6970712 -472.5906531) scale(1.0383988)"><g transform="translate(0 -36)">
      <g>
        <g>
          <path d="M0,-5V0H3z" fill="#FFF" transform="rotate(18 0 -5)" />
          <g transform="scale(-1 1)"><path d="M0,-5V0H3z" fill="#FFF" transform="rotate(18 0 -5)" />
          </g></g>
        <g transform="rotate(72)"><g>
          <path d="M0,-5V0H3z" fill="#FFF" transform="rotate(18 0 -5)" />
          <g transform="scale(-1 1)"><path d="M0,-5V0H3z" fill="#FFF" transform="rotate(18 0 -5)" />
          </g></g>
        </g></g>
      <g transform="rotate(-72)"><g>
          <path d="M0,-5V0H3z" fill="#FFF" transform="rotate(18 0 -5)" />
          <g transform="scale(-1 1)"><path d="M0,-5V0H3z" fill="#FFF" transform="rotate(18 0 -5)" />
          </g></g>
        </g><g transform="rotate(144)"><g>
        <g>
          <path d="M0,-5V0H3z" fill="#FFF" transform="rotate(18 0 -5)" />
          <g transform="scale(-1 1)"><path d="M0,-5V0H3z" fill="#FFF" transform="rotate(18 0 -5)" />
          </g></g>
        <g transform="rotate(72)"><g>
          <path d="M0,-5V0H3z" fill="#FFF" transform="rotate(18 0 -5)" />
          <g transform="scale(-1 1)"><path d="M0,-5V0H3z" fill="#FFF" transform="rotate(18 0 -5)" />
          </g></g>
        </g></g>
      </g></g>
  </g></svg>