<svg xmlns="http://www.w3.org/2000/svg" width="900" height="700" viewBox="0 0 9 7">
<rect width="9" height="7" fill="#322C24"/>
<rect x="1" y="0" width="1" height="1" fill="#fff"/>
<rect x="3" y="0" width="1" height="1" fill="#fff"/>
<rect x="5" y="0" width="1" height="1" fill="#fff"/>
<rect x="7" y="0" width="1" height="1" fill="#fff"/>
<rect x="0" y="1" width="1" height="1" fill="#fff"/>
<rect x="2" y="1" width="1" height="1" fill="#fff"/>
<rect x="4" y="1" width="1" height="1" fill="#fff"/>
<rect x="6" y="1" width="1" height="1" fill="#fff"/>
<rect x="8" y="1" width="1" height="1" fill="#fff"/>
<rect x="1" y="2" width="1" height="1" fill="#fff"/>
<rect x="3" y="2" width="1" height="1" fill="#fff"/>
<rect x="5" y="2" width="1" height="1" fill="#fff"/>
<rect x="7" y="2" width="1" height="1" fill="#fff"/>
<rect x="0" y="3" width="1" height="1" fill="#fff"/>
<rect x="2" y="3" width="1" height="1" fill="#fff"/>
<rect x="4" y="3" width="1" height="1" fill="#fff"/>
<rect x="6" y="3" width="1" height="1" fill="#fff"/>
<rect x="8" y="3" width="1" height="1" fill="#fff"/>
<rect x="1" y="4" width="1" height="1" fill="#fff"/>
<rect x="3" y="4" width="1" height="1" fill="#fff"/>
<rect x="5" y="4" width="1" height="1" fill="#fff"/>
<rect x="7" y="4" width="1" height="1" fill="#fff"/>
<rect x="0" y="5" width="1" height="1" fill="#fff"/>
<rect x="2" y="5" width="1" height="1" fill="#fff"/>
<rect x="4" y="5" width="1" height="1" fill="#fff"/>
<rect x="6" y="5" width="1" height="1" fill="#fff"/>
<rect x="8" y="5" width="1" height="1" fill="#fff"/>
<rect x="1" y="6" width="1" height="1" fill="#fff"/>
<rect x="3" y="6" width="1" height="1" fill="#fff"/>
<rect x="5" y="6" width="1" height="1" fill="#fff"/>
<rect x="7" y="6" width="1" height="1" fill="#fff"/>
</svg>
