<svg xmlns="http://www.w3.org/2000/svg" width="1200" height="800" viewBox="0 0 1200 800">
  <rect fill="#009EDB" width="1200" height="800"/>
  <g transform="translate(344 144) scale(1)">
    <circle cx="256" cy="256" r="145" fill="#FFFFFF"/>
    <circle cx="256" cy="256" r="111" fill="#009EDB"/>
    <path fill="#009EDB" d="M76 76h360L256 256z"/>
    <circle cx="256" cy="256" r="89" fill="#FFFFFF"/>
    <circle cx="256" cy="256" r="69" fill="#009EDB"/>
    <path fill="#FFFFFF" d="M246 178h20v156h-20z"/>
    <path fill="#FFFFFF" d="M334 246v20H178v-20z"/>
    <path fill="#FFFFFF" d="m304 193.7 14.2 14.2-110.3 110.3-14.2-14.1z"/>
    <path fill="#FFFFFF" d="m318.2 304-14.1 14.2-110.4-110.3 14.2-14.2z"/>
    <circle cx="256" cy="256" r="44" fill="#FFFFFF"/>
    <circle cx="256" cy="256" r="22" fill="#009EDB"/>
    <ellipse cx="256" cy="412" fill="#FFFFFF" rx="44" ry="40"/>
    <path fill="#009EDB" d="m256 407-78 63h156z"/>
  </g>
</svg>
