<svg xmlns="http://www.w3.org/2000/svg" width="512" height="512">
  <defs>
    <clipPath id="r">
      <rect width="512" height="512"/>
    </clipPath>
  </defs>
  <g clip-path="url(#r)"><path fill="#FFFFFF" d="M512 384H0V128h512z"/><path fill="#0067C6" d="M512 512H0V368h512zm0-368H0V0h512z"/><path fill="#C8A400" d="M256 178a78 78 0 1 0 0 156 78 78 0 0 0 0-156m0 122.5a44.5 44.5 0 1 1 0-89 44.5 44.5 0 0 1 0 89"/><path fill="#0067C6" d="M294.6 267.1 256 256l-38.6 11.1-12.8 22.3h102.8z"/><path fill="#17C0EB" d="m256 200.4-25.7 44.5L256 256l25.7-11.1z"/><path fill="#97C924" d="M217.4 267.1h77.2L281.7 245h-51.4z"/>  </g>
</svg>