<svg xmlns="http://www.w3.org/2000/svg" width="512" height="512" viewBox="0 0 512 512">
  <defs>
    <clipPath id="c">
      <circle cx="256" cy="256" r="256"/>
    </clipPath>
  </defs>
  <g clip-path="url(#c)">
    <path fill="#D32011" d="M145 0h222l32 256-32 256H145l-32-256z"/>
    <path fill="#007A36" d="M367 0h145v512H367z"/>
    <path fill="#000000" d="M0 0h145v512H0z"/>
    <path fill="#FFFFFF" d="M256 167a89 89 0 0 0 0 178 89 89 0 0 0 0-178m0 33a56 56 0 0 1 0 112 56 56 0 0 1 0-112m0 28.5c-12 0-22 10-22 22v33h44v-33c0-12-10-22-22-22"/>
  </g>
</svg>
