<svg xmlns="http://www.w3.org/2000/svg" width="512" height="512" viewBox="0 0 512 512"><defs><clipPath id="c"><circle cx="256" cy="256" r="256"/></clipPath></defs><g clip-path="url(#c)"><path fill="#CC092F" d="M0 0h512v256l-256 32L0 256Z"/><path fill="#000000" d="M0 256h512v256H0z"/><path fill="#FFCB00" d="M256 128v33a94 94 0 0 1 47 13 95 95 0 0 1 23 138l-144-78a33 33 0 0 0 13 45l104 57a95 95 0 0 1-90 2 94 94 0 0 1-32-30l-28 18a128 128 0 0 0 160 46l5 4 29 16a28 28 0 0 0 38-11l16-30-37-20 7-11a128 128 0 0 0-47-175 127 127 0 0 0-64-17m0 50-8 26h-27l22 15-9 26 22-16 22 16-9-26 22-16h-27z"/></g></svg>