<svg xmlns="http://www.w3.org/2000/svg" width="512" height="512" viewBox="0 0 512 512">
  <defs>
    <clipPath id="c">
      <circle cx="256" cy="256" r="256"/>
    </clipPath>
  </defs>
  <g clip-path="url(#c)">
    <path fill="#003082" fill-rule="evenodd" d="M22.2 151.5a256 256 0 0 1 467.6 0z" clip-rule="evenodd"/><path fill="#FFFFFF" fill-rule="evenodd" d="M507.3 304.9A257 257 0 0 0 477.8 128H34.2A255 255 0 0 0 4.7 304.9z" clip-rule="evenodd"/><path fill="#289728" fill-rule="evenodd" d="M457.2 414.3A255 255 0 0 0 512 256H0a255 255 0 0 0 54.8 158.3z" clip-rule="evenodd"/><path fill="#FFCE00" fill-rule="evenodd" d="M477.8 384a255.9 255.9 0 0 1-443.6 0z" clip-rule="evenodd"/><path fill="#D21034" fill-rule="evenodd" d="M320 8v496a257 257 0 0 1-128 0V8q30.6-7.9 63.5-8h1q33 .1 63.5 8" clip-rule="evenodd"/><path fill="#FFCE00" d="m146 38.9 8.2 25.5H181L159.3 80l8.3 25.5L146 90l-21.7 15.7 8.3-25.5-21.7-15.7h26.8z"/>
  </g>
</svg>
