<svg xmlns="http://www.w3.org/2000/svg" width="512" height="512" viewBox="0 0 512 512">
  <defs>
    <clipPath id="c">
      <circle cx="256" cy="256" r="256"/>
    </clipPath>
  </defs>
  <g clip-path="url(#c)">
    <g clip-path="url(#a)"><path fill="#DC241F" d="M437 75 224 224 75 437a256 256 0 0 0 437-178.2v-5.7A255 255 0 0 0 437 75"/><path fill="#009739" d="M437 75 75 437A256 256 0 0 1 437 75"/><path fill="#FFD100" d="M372.2 27.8a257 257 0 0 1 112 112L139.8 484.2a257 257 0 0 1-112-112z"/></g><defs><clipPath id="a"><path fill="#FFFFFF" d="M0 0h512v512H0z"/></clipPath></defs>
  </g>
</svg>
