<svg xmlns="http://www.w3.org/2000/svg" width="512" height="512" viewBox="0 0 512 512"><defs><clipPath id="c"><circle cx="256" cy="256" r="256"/></clipPath></defs><g clip-path="url(#c)"><path fill="#0052B4" d="M0 0h512v102.4L483.8 151l28.2 53.8v102.4l-30.5 50.7 30.5 51.7V512H0l39.8-257z"/><path fill="#FF9811" d="M0 44.5v423V256z"/><path fill="#EEE" d="M27.2 102.4v102.4H512V102.4H27.2zm0 204.8v102.4H512V307.2H27.2z"/><path fill="#D80027" d="M0 0v512l256-256L0 0z"/><path fill="#EEE" d="m103.6 189.2 16.6 51h53.6l-43.4 31.6 16.6 51-43.4-31.5-43.4 31.5 16.6-51-43.4-31.6H87z"/></g></svg>