<svg xmlns="http://www.w3.org/2000/svg" width="512" height="512" viewBox="0 0 512 512">
  <defs>
    <clipPath id="c">
      <circle cx="256" cy="256" r="256"/>
    </clipPath>
  </defs>
  <g clip-path="url(#c)">
    <path fill="#FFFFFF" d="M0 0h512v512H0Z"/>
    <path fill="#000000" d="m350 335 24-24 16 16-24 23zm-39 39 24-24 15 16-23 24zm87 8 23-24 16 16-24 24zm-40 39 24-23 16 15-24 24Zm16-63 24-23 15 15-23 24zm-39 40 23-24 16 16-24 23zm63-221-63-63 15-15 64 63zm-63-15-24-24 16-16 23 24zm39 39-24-24 16-15 24 23zm8-87-24-23 16-16 24 24Zm39 40-23-24 15-16 24 24ZM91 358l63 63-16 16-63-63zm63 16 23 24-15 15-24-23zm-40-39 24 23-16 16-23-24zm24-24 63 63-16 16-63-63zm16-220-63 63-16-16 63-63zm23 23-63 63-15-16 63-63zm24 24-63 63-16-16 63-63z"/>
    <path fill="#CD2E3A" d="M319 319 193 193a89 89 0 1 1 126 126z"/>
    <path fill="#0047A0" d="M319 319a89 89 0 1 1-126-126z"/>
    <circle cx="224.5" cy="224.5" r="44.5" fill="#CD2E3A"/>
    <circle cx="287.5" cy="287.5" r="44.5" fill="#0047A0"/>
    <!-- border --><circle cx="256" cy="256" r="256" fill="none" stroke="#cdcfd3" stroke-width="8"/>
  </g>
</svg>
