<svg xmlns="http://www.w3.org/2000/svg" width="512" height="512" viewBox="0 0 512 512">
  <defs>
    <clipPath id="c">
      <circle cx="256" cy="256" r="256"/>
    </clipPath>
  </defs>
  <g clip-path="url(#c)">
    <path fill="#FFFFFF" d="M256 0c54.8 0 105.6 17.2 147.2 46.6L453.5 93q17.7 21.5 30.6 46.6l18.3 46.5a255 255 0 0 1 8.6 46.5v46.5a255 255 0 0 1-8.6 46.6L484 372.3a256 256 0 0 1-30.6 46.6l-50.3 46.6A255 255 0 0 1 256 512a255 255 0 0 1-147.2-46.5l-50.3-46.6A256 256 0 0 1 28 372.3L9.6 325.8A255 255 0 0 1 1 279.2v-46.5a255 255 0 0 1 8.6-46.5L28 139.7A256 256 0 0 1 58.5 93l50.3-46.5A255 255 0 0 1 256 0m256 256.5v-1z"/><path fill="#CC1133" d="M511 279.2q1-11.1 1-22.7v-1q0-11.6-1-22.8H1a259 259 0 0 0 0 46.5zm-8.6 46.6H9.6A254 254 0 0 0 28 372.3h456.2a254 254 0 0 0 18.3-46.5m-49 93.2h-395a258 258 0 0 0 50.3 46.5h294.4a258 258 0 0 0 50.3-46.6M9.6 186.2h492.8a254 254 0 0 0-18.3-46.5H27.9a254 254 0 0 0-18.3 46.5M58.5 93h395a258 258 0 0 0-50.3-46.4H108.8A258 258 0 0 0 58.5 93"/><path fill="#003377" d="M256 0v232.7H1A256 256 0 0 1 256 0"/><path fill="#FFFFFF" d="m144 58.4 16.6 51.1h53.7l-43.4 31.6 16.5 51-43.4-31.5-43.4 31.6L117 141l-43.4-31.6h53.7z"/>
    <!-- border --><circle cx="256" cy="256" r="256" fill="none" stroke="#cdcfd3" stroke-width="4"/>
  </g>
</svg>
