<svg xmlns="http://www.w3.org/2000/svg" width="512" height="512" viewBox="0 0 512 512">
  <defs>
    <clipPath id="c">
      <circle cx="256" cy="256" r="256"/>
    </clipPath>
  </defs>
  <g clip-path="url(#c)">
    <path fill="#FFFFFF" d="M477.8 384A255 255 0 0 0 512 256c0-46.6-12.5-90.3-34.2-128H34.2A255 255 0 0 0 0 256c0 46.6 12.5 90.3 34.2 128z"/><path fill="#009A44" d="M256 512A256 256 0 0 1 25.6 368h460.6A256 256 0 0 1 256 512"/><path fill="#001489" d="M256 0A256 256 0 0 0 25.7 144h460.6A256 256 0 0 0 256 0"/><path fill="#000000" d="M272.7 250.4v-61.2h-33.4v61.2L199 290.8a66.7 66.7 0 0 0 114 0z"/>
    <!-- border --><circle cx="256" cy="256" r="256" fill="none" stroke="#cdcfd3" stroke-width="8"/>
  </g>
</svg>
