<svg xmlns="http://www.w3.org/2000/svg" width="512" height="512" viewBox="0 0 512 512">
  <defs>
    <clipPath id="c">
      <circle cx="256" cy="256" r="256"/>
    </clipPath>
  </defs>
  <g clip-path="url(#c)">
    <path fill="#FFFFFF" d="M482.2 376c19-35.8 29.8-76.6 29.8-120s-10.8-84.2-29.8-120H29.8A255 255 0 0 0 0 256c0 43.4 10.8 84.2 29.8 120z"/><path fill="#00A3E0" d="M496.5 344a256.1 256.1 0 0 1-481 0z"/><path fill="#EF3340" d="M496.5 168h-481a256.1 256.1 0 0 1 481 0"/><path fill="#FFFFFF" d="M256 512a256 256 0 1 0 0-512 256 256 0 0 0 0 512"/><path fill="#EF3340" d="M256 0A256 256 0 0 0 16 167h480A256 256 0 0 0 256 0"/><path fill="#00A3E0" d="M256 512a256 256 0 0 0 240-167H16a256 256 0 0 0 240 167"/>
    <!-- border --><circle cx="256" cy="256" r="256" fill="none" stroke="#cdcfd3" stroke-width="4"/>
  </g>
</svg>
