<svg xmlns="http://www.w3.org/2000/svg" width="512" height="512" viewBox="0 0 512 512">
  <defs>
    <clipPath id="c">
      <circle cx="256" cy="256" r="256"/>
    </clipPath>
  </defs>
  <g clip-path="url(#c)">
    <path fill="#006600" d="M0 512h167l37.9-260.3L167 0H0z"/>
    <path fill="#FF0000" d="M512 0H167v512h345z"/>
    <circle cx="167" cy="256" r="89" fill="#FFFF00"/>
    <path fill="#FF0000" d="M108.5 202.6v64.9a58.4 58.4 0 1 0 116.9 0v-65z"/>
    <path fill="#FFFFFF" d="M167 304.2a34.4 34.4 0 0 1-34.3-34.3v-45.3h68.6v45.1a34.4 34.4 0 0 1-34.3 34.5z"/>
    <path fill="#003399" fill-rule="evenodd" d="M167 249.6c-3.7 0-6.8-3-6.8-6.7v-9h13.6v8.9c0 3.8-3.1 6.8-6.8 6.8m0 43.2a7 7 0 0 1-6.8-6.8v-8.9h13.6v8.9c0 3.7-3.1 6.7-6.8 6.7zm-6.8-28.4c0 3.8 3.1 6.8 6.8 6.8s6.8-3.1 6.8-6.8v-8.9h-13.6zm-13 6.8c-3.7 0-6.7-3-6.7-6.8v-8.9H154v8.9c0 3.7-3 6.8-6.8 6.8m32.8-6.8a6.7 6.7 0 1 0 13.5 0v-8.9H180z"/>
    <!-- border --><circle cx="256" cy="256" r="256" fill="none" stroke="#cdcfd3" stroke-width="8"/>
  </g>
</svg>
