<svg xmlns="http://www.w3.org/2000/svg" width="512" height="512" viewBox="0 0 512 512">
  <defs>
    <clipPath id="c">
      <circle cx="256" cy="256" r="256"/>
    </clipPath>
  </defs>
  <g clip-path="url(#c)">
    <path fill="#FFFFFF" d="M256 512a256 256 0 0 0 256-255.5v-.5l-256-32L0 256a256 256 0 0 0 256 256"/><path fill="#ED2939" d="M512 255.5v.5H0a256 256 0 0 1 512-.5"/><path fill="#FFFFFF" d="M154.9 128A78 78 0 0 1 216 51.9q-8.1-1.8-16.7-1.8A78 78 0 1 0 216 204a78 78 0 0 1-61.2-76.1M255 55.7l5.6 17h17.8L264 83.2l5.5 17L255 89.7l-14.4 10.5 5.5-17-14.5-10.5h18z"/><path fill="#FFFFFF" d="m211.7 89 5.5 17H235l-14.5 10.6 5.5 17-14.4-10.5-14.5 10.5 5.5-17-14.4-10.6H206zm86.7 0 5.5 17h18l-14.5 10.6 5.5 17-14.5-10.5-14.5 10.5 5.6-17L275 106h18zm-16.7 50.1 5.5 17h18l-14.5 10.5 5.5 17-14.5-10.5-14.4 10.6 5.5-17-14.5-10.6h17.9zm-53.3 0 5.5 17h17.9l-14.5 10.5 5.5 17-14.4-10.5-14.5 10.6 5.5-17L205 156h18z"/>
    <!-- border --><circle cx="256" cy="256" r="256" fill="none" stroke="#cdcfd3" stroke-width="8"/>
  </g>
</svg>
