<svg xmlns="http://www.w3.org/2000/svg" width="512" height="512" viewBox="0 0 512 512">
  <defs>
    <clipPath id="c">
      <circle cx="256" cy="256" r="256"/>
    </clipPath>
  </defs>
  <g clip-path="url(#c)">
    <path fill="#254AA5" d="m0 160 256-32 256 32v192l-256 32L0 352z"/>
    <path fill="#FFFFFF" d="M0 0h512v160H0z"/>
    <path fill="#ED1C24" d="M0 352h512v160H0z"/>
    <path fill="#FFFFFF" d="M64 63v217c0 104 144 137 144 137s144-33 144-137V63z"/>
    <path fill="#ED1C24" d="M96 95v185a83 78 0 0 0 9 34h206a83 77 0 0 0 9-34V95z"/>
    <path fill="#FFFFFF" d="M288 224h-64v-32h32v-32h-32v-32h-32v32h-32v32h32v32h-64v32h64v32h32v-32h64z"/>
    <path fill="#254AA5" d="M152 359a247 231 0 0 0 56 24c12-3 34-11 56-24a123 115 0 0 0 47-45 60 56 0 0 0-34-10l-14 2a60 56 0 0 0-110 0 60 56 0 0 0-14-2c-12 0-24 4-34 10a123 115 0 0 0 47 45z"/>
    <!-- border --><circle cx="256" cy="256" r="256" fill="none" stroke="#cdcfd3" stroke-width="4"/>
  </g>
</svg>
