<svg xmlns="http://www.w3.org/2000/svg" width="512" height="512" viewBox="0 0 512 512">
  <defs>
    <clipPath id="c">
      <circle cx="256" cy="256" r="256"/>
    </clipPath>
  </defs>
  <g clip-path="url(#c)">
    <path fill="#FFF" d="M256 0h256v64l-32 32 32 32v64l-32 32 32 32v64l-32 32 32 32v64l-256 32L0 448v-64l32-32-32-32v-64z"/>
    <path fill="#B31942" d="M224 64h288v64H224Zm0 128h288v64H256ZM0 320h512v64H0Zm0 128h512v64H0Z"/>
    <path fill="#0A3161" d="M0 0h256v256H0Z"/>
    <path fill="#FFF" d="M45 18.5l8.6 26.5h28l-22.7 16.4 8.7 26.6-22.6-16.4-22.6 16.4 8.7-26.6-22.6-16.4h27.9zM128 18.5l8.6 26.5h28l-22.7 16.4 8.7 26.6-22.6-16.4-22.6 16.4 8.7-26.6-22.6-16.4h27.9zM211 18.5l8.6 26.5h28l-22.7 16.4 8.7 26.6-22.6-16.4-22.6 16.4 8.7-26.6-22.6-16.4h27.9zM45 101.5l8.6 26.5h28l-22.7 16.4 8.7 26.6-22.6-16.4-22.6 16.4 8.7-26.6-22.6-16.4h27.9zM128 101.5l8.6 26.5h28l-22.7 16.4 8.7 26.6-22.6-16.4-22.6 16.4 8.7-26.6-22.6-16.4h27.9zM211 101.5l8.6 26.5h28l-22.7 16.4 8.7 26.6-22.6-16.4-22.6 16.4 8.7-26.6-22.6-16.4h27.9zM45 184.5l8.6 26.5h28l-22.7 16.4 8.7 26.6-22.6-16.4-22.6 16.4 8.7-26.6-22.6-16.4h27.9zM128 184.5l8.6 26.5h28l-22.7 16.4 8.7 26.6-22.6-16.4-22.6 16.4 8.7-26.6-22.6-16.4h27.9zM211 184.5l8.6 26.5h28l-22.7 16.4 8.7 26.6-22.6-16.4-22.6 16.4 8.7-26.6-22.6-16.4h27.9z"/>
  <!-- border --><circle cx="256" cy="256" r="256" fill="none" stroke="#cdcfd3" stroke-width="8"/></g>
</svg>
