<svg xmlns="http://www.w3.org/2000/svg" width="900" height="600" viewBox="0 0 30 20" fill="#FF0000">
  <path fill="#FFFFFF" d="m0 0h30v20H0z"/>
  <path d="m13 0h4v20h-4zM0 8h30v4H0z"/>
  <g>
    <path d="m5.7968 1.954a5.4 5.4 0 0 0 1.4064 0 10.4 10.4 0 0 0 0 4.092 5.4 5.4 0 0 0-1.4064 0 10.4 10.4 0 0 0 0-4.092z"/>
    <path transform="rotate(90,6.5,4)" d="m5.7968 1.954a5.4 5.4 0 0 0 1.4064 0 10.4 10.4 0 0 0 0 4.092 5.4 5.4 0 0 0-1.4064 0 10.4 10.4 0 0 0 0-4.092z"/>
  </g>
  <g transform="translate(17,0)">
    <path d="m5.7968 1.954a5.4 5.4 0 0 0 1.4064 0 10.4 10.4 0 0 0 0 4.092 5.4 5.4 0 0 0-1.4064 0 10.4 10.4 0 0 0 0-4.092z"/>
    <path transform="rotate(90,6.5,4)" d="m5.7968 1.954a5.4 5.4 0 0 0 1.4064 0 10.4 10.4 0 0 0 0 4.092 5.4 5.4 0 0 0-1.4064 0 10.4 10.4 0 0 0 0-4.092z"/>
  </g>
  <g transform="translate(0,12)">
    <path d="m5.7968 1.954a5.4 5.4 0 0 0 1.4064 0 10.4 10.4 0 0 0 0 4.092 5.4 5.4 0 0 0-1.4064 0 10.4 10.4 0 0 0 0-4.092z"/>
    <path transform="rotate(90,6.5,4)" d="m5.7968 1.954a5.4 5.4 0 0 0 1.4064 0 10.4 10.4 0 0 0 0 4.092 5.4 5.4 0 0 0-1.4064 0 10.4 10.4 0 0 0 0-4.092z"/>
  </g>
  <g transform="translate(17,12)">
    <path d="m5.7968 1.954a5.4 5.4 0 0 0 1.4064 0 10.4 10.4 0 0 0 0 4.092 5.4 5.4 0 0 0-1.4064 0 10.4 10.4 0 0 0 0-4.092z"/>
    <path transform="rotate(90,6.5,4)" d="m5.7968 1.954a5.4 5.4 0 0 0 1.4064 0 10.4 10.4 0 0 0 0 4.092 5.4 5.4 0 0 0-1.4064 0 10.4 10.4 0 0 0 0-4.092z"/>
  </g>
</svg>
