<svg xmlns="http://www.w3.org/2000/svg" width="1200" height="600" viewBox="0 0 13440 6720">
  <path fill="#FFFFFF" d="M0 0h13440v6720H0z"/>
  <path fill="#CC0001" d="M0 0h13440v480H0z"/>
  <path fill="#CC0001" d="M0 960h13440v480H0z"/>
  <path fill="#CC0001" d="M0 1920h13440v480H0z"/>
  <path fill="#CC0001" d="M0 2880h13440v480H0z"/>
  <path fill="#CC0001" d="M0 3840h13440v480H0z"/>
  <path fill="#CC0001" d="M0 4800h13440v480H0z"/>
  <path fill="#CC0001" d="M0 5760h13440v480H0z"/>
  <path fill="#010066" d="M0 0h6720v4080H0z"/>
  <path fill="#FCC200" d="M4200 720l107 732 414-613-222 706 639-373-506 540 738-59-690 267 690 267-738-59 506 540-639-373 222 706-414-613-107 732-107-732-414 613 222-706-639 373 506-540-738 59 690-267-690-267 738 59-506-540 639 373-222-706 414 613zM3600 750a1280 1280 0 1 0 0 2340 1440 1440 0 1 1 0-2340z"/>
</svg>
