<svg xmlns="http://www.w3.org/2000/svg" width="1000" height="500" viewBox="0 0 1000 500">
  <path fill="#308738" d="M0 0h1000v500H0z"/>
  <path fill="#3081F7" d="M0 0h1000v170H0z"/>
  <path fill="#EE162E" d="M0 170h1000v160H0z"/>
  <path fill="#FFFFFF" d="M0 180h1000v140H0z"/>
  <g transform="translate(100,-8) scale(0.977)">
    <path fill="#FFFFFF" d="M117.2 105.7a50 50 0 0 1 39.3-48.9 50.2 50.2 0 0 0-10.7-1.1 50 50 0 1 0 10.7 99c-22.5-5-39.3-25-39.3-49zm69 22.8 3.3 10.4h11l-9 6.5 3.5 10.4-9-6.4-8.7 6.4 3.4-10.4-9-6.5h11zm35 0 3.4 10.4h11l-9 6.5 3.4 10.4-8.8-6.4-9 6.4 3.5-10.4-9-6.5h11zm35 0 3.4 10.4h11l-9 6.5 3.5 10.4-9-6.4-8.8 6.4 3.4-10.4-9-6.5h11zm35 0 3.4 10.4h11l-9 6.5 3.5 10.4-9-6.4-8.8 6.4 3.4-10.4-9-6.5h11zm35 0 3.4 10.4h11l-9 6.5 3.5 10.4-9-6.4-8.8 6.4 3.4-10.4-8.8-6.5h11zm-105-36.4 3.4 10.4h11l-9 6.5 3.4 10.4-8.8-6.5-9 6.5 3.5-10.4-9-6.5h11zm35 0 3.4 10.4h11l-9 6.5 3.5 10.4-9-6.5-8.8 6.5 3.4-10.4-9-6.5h11zm35 0 3.4 10.4h11l-9 6.5 3.5 10.4-9-6.5-8.8 6.5 3.4-10.4-9-6.5h11zm35 0 3.4 10.4h11l-9 6.5 3.5 10.4-9-6.5-8.8 6.5 3.4-10.4-8.8-6.5h11zm-70-36.4 3.4 10.4h11l-9 6.4 3.6 10.5-9-6.5-8.8 6.5 3.4-10.5-9-6.4h11zm35 0 3.4 10.4h11l-9 6.4 3.6 10.5-9-6.5-8.8 6.5 3.4-10.5-9-6.4h11zm35 0 3.4 10.4h11l-9 6.4 3.6 10.5-9-6.5-8.8 6.5 3.4-10.5-8.8-6.4h11z"/>
  </g>
</svg>
