<svg xmlns="http://www.w3.org/2000/svg" width="512" height="512" viewBox="0 0 512 512"><defs><clipPath id="c"><circle cx="256" cy="256" r="256"/></clipPath></defs><g clip-path="url(#c)"><path fill="#FFFFFF" d="m0 160 256-32 256 32v192l-256 32L0 352Z"/><path fill="#0052B4" d="M0 0h512v160H0Z"/><path fill="#496E2D" d="M0 352h512v160H0Z"/><path fill="#D80027" d="M0 0v512l256-256L0 0z"/><path fill="#FF9811" d="m345 229-12 11 40 40-40 40 11 11 40-40 40 40 11-11-40-40 40-40-11-11-40 40z"/><path fill="#D80027" d="m384 181 21 62-54-38h66l-53 39z"/><!-- border --><circle cx="256" cy="256" r="256" fill="none" stroke="#cdcfd3" stroke-width="8"/></g></svg>