<svg xmlns="http://www.w3.org/2000/svg" width="512" height="512" viewBox="0 0 512 512"><defs><clipPath id="c"><circle cx="256" cy="256" r="256"/></clipPath></defs><g clip-path="url(#c)"><path fill="#0052B4" d="M448 0h64v512h-64l-16-256Z"/><path fill="#FFFFFF" d="M416 0h32v512h-32l-16-256Z"/><path fill="#D80027" d="M0 0h416v512H0z"/><circle cx="208" cy="256" r="160" fill="#FFFFFF"/><circle cx="208" cy="256" r="128" fill="#0052B4"/><path fill="#FFFFFF" d="m145 284 60 83V265l-60 83 98-32zm15-128-22 100 76-68-102 11 89 51zm147 49-42 93-21-100 75 69-102-11z"/><!-- border --><circle cx="256" cy="256" r="256" fill="none" stroke="#cdcfd3" stroke-width="8"/></g></svg>