<svg xmlns="http://www.w3.org/2000/svg" width="1200" height="600" viewBox="0 0 1200 600">
  <defs>
    <clipPath id="p">
      <rect width="102.4" height="512"/>
    </clipPath>
  </defs>
  <rect width="1200" height="400" fill="#CE1720"/>
  <rect y="400" width="1200" height="200" fill="#007C30"/>
  <g transform="scale(1.171875)">
    <g clip-path="url(#p)">
      <rect width="102.4" height="512" fill="#CE1720"/>
      <path fill="#FFFFFF" d="M51.2 51.2 25.6-.4l25.6-50.8L76.8-.4zm51.2 0L76.8-.4l25.6-50.8L128-.4zM0 51.2-25.6-.4 0-51.2 25.6-.4zm51.2 102.4L25.6 102l25.6-50.8L76.8 102zm51.2 0L76.8 102l25.6-50.8L128 102zM0 153.6-25.6 102 0 51.2 25.6 102zM51.2 256l-25.6-51.6 25.6-50.8 25.6 50.8zm51.2 0-25.6-51.6 25.6-50.8 25.6 50.8zM0 256l-25.6-51.6L0 153.6l25.6 50.8zm51.2 102.4-25.6-51.6L51.2 256l25.6 50.8z"/>
      <path fill="#FFFFFF" d="m102.4 358.4-25.6-51.6 25.6-50.8 25.6 50.8zM0 358.4l-25.6-51.6L0 256l25.6 50.8zm51.2 102.4-25.6-51.6 25.6-50.8 25.6 50.8zm0 102.4-25.6-51.6 25.6-50.8 25.6 50.8zm51.2-102.4-25.6-51.6 25.6-50.8 25.6 50.8zm0 102.4-25.6-51.6 25.6-50.8 25.6 50.8zM0 460.8l-25.6-51.6L0 358.4l25.6 50.8zm0 102.4-25.6-51.6L0 460.8l25.6 50.8z"/>
    </g>
  </g>
</svg>
