<svg xmlns="http://www.w3.org/2000/svg" width="800" height="400" viewBox="0 0 16 8">
  <rect width="16" height="8" fill="#002395"/>
  <path d="m4.24,0h8v8z" fill="#FECB00"/>
  <!-- Star 1: original position -->
  <path d="M2.353283,0.5248529 2.8,-0.85 3.246717,0.524853 2.077197,-0.324853H3.522803z" fill="#FFFFFF"/>
  <!-- Star 2: offset (1,1) -->
  <path d="M3.353283,1.5248529 3.8,0.15 4.246717,1.524853 3.077197,0.674147H4.522803z" fill="#FFFFFF"/>
  <!-- Star 3: offset (2,2) -->
  <path d="M4.353283,2.5248529 4.8,1.15 5.246717,2.524853 4.077197,1.674147H5.522803z" fill="#FFFFFF"/>
  <!-- Star 4: offset (3,3) from group -->
  <path d="M5.353283,3.5248529 5.8,2.15 6.246717,3.524853 5.077197,2.674147H6.522803z" fill="#FFFFFF"/>
  <!-- Star 5: offset (4,4) -->
  <path d="M6.353283,4.5248529 6.8,3.15 7.246717,4.524853 6.077197,3.674147H7.522803z" fill="#FFFFFF"/>
  <!-- Star 6: offset (5,5) -->
  <path d="M7.353283,5.5248529 7.8,4.15 8.246717,5.524853 7.077197,4.674147H8.522803z" fill="#FFFFFF"/>
  <!-- Star 7: offset (6,6) from group -->
  <path d="M8.353283,6.5248529 8.8,5.15 9.246717,6.524853 8.077197,5.674147H9.522803z" fill="#FFFFFF"/>
  <!-- Star 8: offset (7,7) -->
  <path d="M9.353283,7.5248529 9.8,6.15 10.246717,7.524853 9.077197,6.674147H10.522803z" fill="#FFFFFF"/>
  <!-- Star 9: offset (8,8) -->
  <path d="M10.353283,8.5248529 10.8,7.15 11.246717,8.524853 10.077197,7.674147H11.522803z" fill="#FFFFFF"/>
</svg>
