<svg xmlns="http://www.w3.org/2000/svg" width="1000" height="500">
  <path fill="#00AFCA" d="M0 0h1000v500H0z"/>
  <g fill="#FFD700" transform="translate(244,-6)">
    <path d="M167.7 258.8a100.2 100.2 0 0 0 176.6 0h56.4c0 20-17.4 36.2-37.4 36.2h1.2c0 20-16.2 36.1-36.2 36.1 0 20-16.1 36.2-36.1 36.2h-72.4c-20 0-36.1-16.2-36.1-36.2-20 0-36.2-16.2-36.2-36.1h1.2c-20 0-37.4-16.2-37.4-36.2z"/>
    <path d="m332.5 211.5-31.2 14.7 16.6 30.3-34-6.5-4.3 34.3L256 259l-23.6 25.3L228 250l-34 6.5 16.7-30.3-31.3-14.7 31.3-14.7-16.7-30.3 34 6.5 4.3-34.3 23.6 25.2 23.6-25.2L284 173l34-6.5-16.6 30.3z"/>
  </g>
</svg>
