<svg xmlns="http://www.w3.org/2000/svg" version="1.1" width="726" height="885" viewBox="-17.582 -4.664 71.571 87.246">
  <title>Flag of Nepal</title>
  <path d="M -15,37.5735931288 h 60 L -15,0 v 80 h 60 L -15,20 z" fill="#DC143C" stroke="#003893" stroke-width="5.165"/>
  <g fill="#FFFFFF">
    <path d="M -11.9502769431,23.4834957055 A 12.8400974233,12.8400974233 0 0,0 11.9502769431,23.4834957055 A 11.9502769431 11.9502769431 0 0,1 -11.9502769431,23.4834957055"/>
    <g transform="translate(0 29.045) scale(5.56106)">
      <circle r="1"/>
      <path d="M 0.195090322016,-0.980785280403 L 0,-1.388784109750 L -0.195090322016,-0.980785280403" transform="rotate(11.25)"/>
      <path d="M 0.195090322016,-0.980785280403 L 0,-1.388784109750 L -0.195090322016,-0.980785280403" transform="rotate(33.75)"/>
      <path d="M 0.195090322016,-0.980785280403 L 0,-1.388784109750 L -0.195090322016,-0.980785280403" transform="rotate(56.25)"/>
      <path d="M 0.195090322016,-0.980785280403 L 0,-1.388784109750 L -0.195090322016,-0.980785280403" transform="rotate(78.75)"/>
      <path d="M 0.195090322016,-0.980785280403 L 0,-1.388784109750 L -0.195090322016,-0.980785280403" transform="rotate(101.25)"/>
      <path d="M 0.195090322016,-0.980785280403 L 0,-1.388784109750 L -0.195090322016,-0.980785280403" transform="rotate(123.75)"/>
      <path d="M 0.195090322016,-0.980785280403 L 0,-1.388784109750 L -0.195090322016,-0.980785280403" transform="scale(-1 1) rotate(11.25)"/>
      <path d="M 0.195090322016,-0.980785280403 L 0,-1.388784109750 L -0.195090322016,-0.980785280403" transform="scale(-1 1) rotate(33.75)"/>
      <path d="M 0.195090322016,-0.980785280403 L 0,-1.388784109750 L -0.195090322016,-0.980785280403" transform="scale(-1 1) rotate(56.25)"/>
      <path d="M 0.195090322016,-0.980785280403 L 0,-1.388784109750 L -0.195090322016,-0.980785280403" transform="scale(-1 1) rotate(78.75)"/>
      <path d="M 0.195090322016,-0.980785280403 L 0,-1.388784109750 L -0.195090322016,-0.980785280403" transform="scale(-1 1) rotate(101.25)"/>
      <path d="M 0.195090322016,-0.980785280403 L 0,-1.388784109750 L -0.195090322016,-0.980785280403" transform="scale(-1 1) rotate(123.75)"/>
    </g>
    <g transform="matrix(8.1434 0 0 8.1434 0 58.787)">
      <circle r="1"/>
      <path d="M 0.258819045103,0.965925826289 L 0,1.576749285537 L -0.258819045103,0.965925826289" transform="rotate(0)"/>
      <path d="M 0.258819045103,0.965925826289 L 0,1.576749285537 L -0.258819045103,0.965925826289" transform="rotate(180)"/>
      <path d="M 0.258819045103,0.965925826289 L 0,1.576749285537 L -0.258819045103,0.965925826289" transform="rotate(90)"/>
      <path d="M 0.258819045103,0.965925826289 L 0,1.576749285537 L -0.258819045103,0.965925826289" transform="rotate(270)"/>
      <path d="M 0.258819045103,0.965925826289 L 0,1.576749285537 L -0.258819045103,0.965925826289" transform="rotate(30)"/>
      <path d="M 0.258819045103,0.965925826289 L 0,1.576749285537 L -0.258819045103,0.965925826289" transform="rotate(210)"/>
      <path d="M 0.258819045103,0.965925826289 L 0,1.576749285537 L -0.258819045103,0.965925826289" transform="rotate(120)"/>
      <path d="M 0.258819045103,0.965925826289 L 0,1.576749285537 L -0.258819045103,0.965925826289" transform="rotate(300)"/>
      <path d="M 0.258819045103,0.965925826289 L 0,1.576749285537 L -0.258819045103,0.965925826289" transform="rotate(60)"/>
      <path d="M 0.258819045103,0.965925826289 L 0,1.576749285537 L -0.258819045103,0.965925826289" transform="rotate(240)"/>
      <path d="M 0.258819045103,0.965925826289 L 0,1.576749285537 L -0.258819045103,0.965925826289" transform="rotate(150)"/>
      <path d="M 0.258819045103,0.965925826289 L 0,1.576749285537 L -0.258819045103,0.965925826289" transform="rotate(330)"/>
    </g>
  </g>
</svg>
