<svg xmlns="http://www.w3.org/2000/svg" width="1200" height="600">
  <rect fill="#DC161D" width="1200" height="600"/>
  <rect fill="#FFFFFF" y="171" width="1200" height="258"/>
  <rect fill="#197B30" y="429" width="1200" height="171"/>
  <g transform="translate(344,44)">
    <path fill="#F7BF00" d="M211.5 323h89v-38l-17.8 9-26.7-26.9-26.7 26.7-17.8-8.9zm-51-44.6 4.2 12.7H178l-10.9 8 4.2 12.7-10.9-8-10.8 8 4.1-12.8-10.7-7.9h13.4zm12.9-44.6 4.1 12.8H191l-10.8 8 4.1 12.6-10.8-7.9-10.9 8 4.2-12.8-10.9-8h13.4zm36.7-33.4 4.2 12.8h13.4l-10.9 8 4.2 12.6-11-7.7-10.8 7.8 4.1-12.7-10.8-7.9H206zm141.4 78-4.2 12.7H334l10.9 8-4.2 12.7 10.9-8 10.8 8-4.1-12.8 10.7-7.9h-13.4zm-12.9-44.6-4.1 12.8H321l10.8 8-4.1 12.6 10.8-7.9 10.9 8-4.2-12.8 10.9-8h-13.4zM302 200.4l-4.2 12.8h-13.4l10.9 8-4.2 12.6 10.9-7.7 10.8 7.8-4.1-12.7 10.8-7.9H306zm-46-16.6 4.1 12.7h13.5l-10.9 8 4.1 12.6-10.8-7.8-10.8 7.8 4.1-12.7-10.9-7.9H252z"/>
  </g>
</svg>
