<svg xmlns="http://www.w3.org/2000/svg" width="512" height="512" viewBox="0 0 512 512">
  <defs>
    <clipPath id="c">
      <circle cx="256" cy="256" r="256"/>
    </clipPath>
    <clipPath id="tl">
      <polygon points="0,0 512,0 0,512"/>
    </clipPath>
    <clipPath id="br">
      <polygon points="512,0 512,512 0,512"/>
    </clipPath>
  </defs>
  <g clip-path="url(#c)">
    <g clip-path="url(#tl)">
      <path fill="#FFF" d="m0 144.7 253.4-28.2L512 144.7V178l-36 76.4 36 79.6v33.3L254.7 400 0 367.3V334l39-78-39-78z"/>
      <path fill="#000" d="M0 0h512v144.7H0z"/>
      <path fill="#BB0000" d="M0 178h512v156H0z"/>
      <path fill="#006600" d="M0 367.3h512V512H0z"/>
      <path fill="#FFF" d="m335.9 118.3-30.3-14-49.4 111.9-49.4-111.9-30.3 14L237.8 256l-61.3 137.7 30.3 14 49.4-111.9 49.4 111.9 30.3-14L274.6 256z"/>
      <path fill="#FFF" d="M256.2 111.3s-7 5.8-16.7 16l-16 127.6 16 129.8c9.7 10.2 16.7 16 16.7 16s7-5.8 16.7-16l15-130.7-15-126.7c-9.7-10.2-16.7-16-16.7-16z"/>
      <path fill="#000" d="m311.9 179.2-10 75.5 10 78.1A158.6 158.6 0 0 0 334 256c0-28.2-9.7-54.5-22.2-76.8zm-111.4 0 8.9 74.3-9 79.3a158.6 158.6 0 0 1-22.1-76.8c0-28.2 9.7-54.5 22.2-76.8z"/>
      <path fill="#BB0000" d="M200.5 179.2v153.6a269 269 0 0 0 39 51.9V127.3c-11.4 12-26.6 30-39 52zm111.4 0a269 269 0 0 0-39-51.9v257.4c11.4-12 26.5-30 39-52V179.3z"/>
    </g>
    <g clip-path="url(#br)">
      <path fill="#FFF" d="m0 0 8 22-8 23v23l32 54-32 54v32l32 48-32 48v32l32 54-32 54v68l22-8 23 8h23l54-32 54 32h32l48-32 48 32h32l54-32 54 32h68l-8-22 8-23v-23l-32-54 32-54v-32l-32-48 32-48v-32l-32-54 32-54V0l-22 8-23-8h-23l-54 32-54-32h-32l-48 32-48-32h-32l-54 32L68 0H0z"/>
      <path fill="#012169" d="M336 0v108L444 0Zm176 68L404 176h108zM0 176h108L0 68ZM68 0l108 108V0Zm108 512V404L68 512ZM0 444l108-108H0Zm512-108H404l108 108Zm-68 176L336 404v108z"/>
      <path fill="#C8102E" d="M0 0v45l131 131h45L0 0zm208 0v208H0v96h208v208h96V304h208v-96H304V0h-96zm259 0L336 131v45L512 0h-45zM176 336 0 512h45l131-131v-45zm160 0 176 176v-45L381 336h-45z"/>
    </g>
  </g>
</svg>
