<svg xmlns="http://www.w3.org/2000/svg" width="512" height="512" viewBox="0 0 512 512">
  <defs>
    <clipPath id="c">
      <circle cx="256" cy="256" r="256"/>
    </clipPath>
    <clipPath id="tl">
      <polygon points="0,0 512,0 0,512"/>
    </clipPath>
    <clipPath id="br">
      <polygon points="512,0 512,512 0,512"/>
    </clipPath>
  </defs>
  <g clip-path="url(#c)">
    <g clip-path="url(#tl)">
      <path fill="#FFFFFF" d="M128 477.8A255 255 0 0 0 256 512c46.6 0 90.3-12.5 128-34.2V34.2A255 255 0 0 0 256 0c-46.6 0-90.3 12.5-128 34.2z"/><path fill="#D52B1E" d="M0 256A256 256 0 0 1 144 25.6v460.6A256 256 0 0 1 0 256m512 0A256 256 0 0 0 368 25.7v460.6A256 256 0 0 0 512 256m-211.5 33.4L345 267l-22.2-11v-22.3L278.3 256l22.2-44.5h-22.2L256 178l-22.3 33.4h-22.2l22.2 44.5-44.5-22.3V256L167 267.1l44.5 22.3-11.2 22.3H245V345h22v-33.3h44.6z"/>
    </g>
    <g clip-path="url(#br)">
      <path fill="#FFF" d="M167 0h178l25.9 252.3L345 512H167l-29.8-253.4z"/>
      <path fill="#002654" d="M0 0h167v512H0z"/>
      <path fill="#CE1126" d="M345 0h167v512H345z"/>
    </g>
    <!-- border --><circle cx="256" cy="256" r="256" fill="none" stroke="#cdcfd3" stroke-width="4"/>
  </g>
</svg>
