<svg xmlns="http://www.w3.org/2000/svg" width="512" height="512" viewBox="0 0 512 512">
  <defs>
    <clipPath id="c">
      <circle cx="256" cy="256" r="256"/>
    </clipPath>
  </defs>
  <g clip-path="url(#c)">
    <rect width="512" height="512" fill="#FACE19"/>
    <circle cx="256" cy="256" r="235.6" fill="#2F2483"/>
    <g transform="matrix(0 1.135 1.135 0 1595.75 -3659.55)"><path d="m 3402.3786,-1002.5033 h 94.8779 v -355.7917 h -94.8779 z" style="fill:#FFFFFF;fill-opacity:1;fill-rule:evenodd;stroke:none;stroke-width:0.15916044"/><path d="m 3627.7133,-1227.8379 v 94.8778 h -355.7917 v -94.8778 z" style="fill:#FFFFFF;fill-opacity:1;fill-rule:evenodd;stroke:none;stroke-width:0.15916087"/><path d="m 3576.8583,-1180.3739 c 0,69.9436 -57.0724,127.0158 -127.016,127.0158 -69.9935,0 -127.0657,-57.0722 -127.0657,-127.0158 0,-69.9934 57.0722,-127.066 127.0657,-127.066 69.9436,0 127.016,57.0726 127.016,127.066 z" style="fill:#FFFFFF;fill-opacity:1;fill-rule:evenodd;stroke:#FACE19;stroke-width:0.90207773;stroke-linecap:butt;stroke-linejoin:round;stroke-miterlimit:22.92558479;stroke-dasharray:none;stroke-opacity:1"/><path d="m 3500.9613,-1122.7205 c -31.8544,28.2456 -80.5769,25.3198 -108.8223,-6.5346 -28.2456,-31.8548 -25.32,-80.5768 6.5344,-108.8224 31.8544,-28.2454 80.5771,-25.3198 108.8223,6.5346 28.246,31.8544 25.32,80.5766 -6.5344,108.8224" style="fill:#FACE19;fill-opacity:1;fill-rule:evenodd;stroke:none;stroke-width:0.15542649"/><path d="m 3495.0349,-1129.4047 c -28.1632,24.9724 -71.2397,22.3862 -96.2123,-5.777 -24.9722,-28.1634 -22.386,-71.2394 5.7776,-96.2118 28.163,-24.9724 71.2397,-22.3856 96.2121,5.7776 24.9726,28.163 22.3862,71.2394 -5.7774,96.2112 z" style="fill:#2F2483;fill-opacity:1;fill-rule:evenodd;stroke:#2F2483;stroke-width:0.07719985;stroke-linecap:butt;stroke-linejoin:miter;stroke-miterlimit:22.92558479;stroke-dasharray:none;stroke-opacity:1"/><path d="m 3395.9064,-1170.0915 2.727,-25.8948 11.6756,-21.3496 19.3798,-10.7116 15.6783,-2.1006 19.5978,2.9404 8.7102,1.8904 -9.581,18.273 5.226,2.9406 h 10.6702 l 18.2912,-1.8902 5.6614,5.251 -5.226,15.3322 v 8.1914 l 4.5728,13.0224 -3.2664,5.2506 h -10.8874 c 0,0 -2.6132,3.5708 -2.1778,4.2008 0.4356,0.6302 -1.5242,5.2508 -1.5242,5.2508 l -4.5728,2.3106 -15.2426,2.9404 -3.702,3.1504 -2.8308,1.8904 -19.5981,-7.141 -11.1054,-1.6804 -11.1054,-0.84 -5.0082,-3.7806 -3.9198,-4.201 -10.2342,3.7806 z" style="fill:#FFFFFF;fill-opacity:1;fill-rule:evenodd;stroke:none;stroke-width:0.15494967"/><path d="m 3459.9277,-1137.0109 c -1.446,-0.6266 -12.9992,-5.7416 -14.3378,-6.3528 -1.3384,-0.6114 -7.2933,-2.7162 -11.2191,-2.9462 -3.926,-0.2298 -11.8244,-0.3776 -14.7198,-0.146 -2.8948,0.232 -6.6836,0.5522 -7.388,-1.3502 -0.7046,-1.9024 -1.514,-5.3048 -2.5744,-6.3018 0,0 -2.5138,2.0898 -4.472,3.4078 -1.9582,1.3184 -7.18,2.393 -9.0274,2.2414 -1.8474,-0.152 -4.8034,-0.2464 -5.2342,-0.307 -0.4312,-0.06 0.4338,-1.4248 0.9912,-2.9388 0.557,-1.5136 2.6146,-6.426 2.9736,-16.8808 0,0 1.0554,-12.1614 0.6954,-17.0928 -0.3602,-4.9316 1.994,-19.8828 16.697,-35.0198 14.7032,-15.1368 40.5015,-11.1102 54.1241,-8.7834 13.6222,2.3266 20.0374,5.0266 20.0374,5.0266 l 0.5998,0.4018 -16.2488,18.1046 c 0,0 3.8606,2.131 19.821,-2.3256 15.9606,-4.4562 20.1468,4.2988 20.7296,5.5476 0.5828,1.2484 4.8162,9.6918 -4.0994,17.7846 0,0 -1.9582,1.3184 -4.1316,2.6066 -2.1736,1.2884 -0.3804,5.4648 0.7866,7.2192 1.167,1.7546 5.3122,7.8512 4.9322,13.3162 -0.3802,5.4646 -1.967,5.7736 -2.5368,5.9062 0,0 -0.6464,-0.09 -1.4772,-0.4184 -0.831,-0.3284 -5.4302,-2.6682 -14.1484,-1.0206 0,0 -0.2952,9.2964 -6.9362,11.7648 -6.641,2.468 -11.6774,3.0382 -17.6206,3.057 0,0 -0.9614,3.4736 -2.473,4.748 -1.5116,1.2746 -2.297,1.3772 -3.7432,0.751 z m -44.5601,-14.529 3.9258,0.2298 20.5802,-28.6414 c 1.2537,-3.2204 -1.0602,-0.997 -1.0602,-0.997 z m 23.3666,3.369 c 0,0 -0.9048,-2.0364 -1.164,-3.24 -0.2594,-1.2032 -0.2492,-6.4014 0.076,-7.8412 0.3264,-1.4402 2.9073,-6.173 3.4785,-7.0482 0.5714,-0.8756 0.4494,-1.5292 0.4198,-2.0638 -0.03,-0.5348 -3.4637,-0.3774 -5.2815,0 -1.8178,0.3826 -3.091,5.935 -3.2682,10.0484 -0.178,4.1136 -3.297,8.7716 -3.297,8.7716 3.614,2.3084 9.0358,1.3678 9.0358,1.3678 z m 11.2967,-29.0888 c 0.6622,-0.02 0.6168,-0.4444 0.6168,-0.4444 0,0 0.154,-0.2966 -0.2608,-0.461 -0.4156,-0.164 -1.7254,0.502 -1.7254,0.502 0,0 0.7072,0.417 1.3694,0.4034 z m -28.5275,-1.9676 c 0,0 4.5522,2.6518 10.4732,-1.6146 0,0 -4.7666,-3.4246 -10.4732,1.6146 z m -6.9678,11.9726 c 5.7208,3.664 10.058,-1.7786 10.058,-1.7786 -5.5534,-2.5794 -10.058,1.7786 -10.058,1.7786 z m 84.2443,-26.224 c 0.7698,0 2.4018,0.124 2.4018,0.124 0,0 0.9644,-4.9588 0.4272,-5.7768 -0.5374,-0.8176 -2.2416,-3.3902 -6.2954,-1.3034 l 2.3902,6.0638 c 0,0 0.3066,0.8918 1.0762,0.893 z m -4.113,1.0174 c 0,0 -1.589,-6.2702 -1.619,-6.805 0,0 -2.678,-0.48 -3.8508,0.7356 0,0 0.3446,5.0354 2.3888,6.8062 0,0 2.9264,-0.4402 3.081,-0.7368 z m -46.5566,-2.7872 c 0.6012,-0.3404 0.3248,-0.6974 1.3258,-0.77 1.001,-0.072 3.8634,0.6456 3.8634,0.6456 2.0432,2.5138 4.768,2.682 9.5106,2.6012 4.7424,-0.08 11.673,-0.8104 11.673,-0.8104 3.811,-4.1366 0.8496,-9.3252 0.8496,-9.3252 l -8.0534,0.148 c 0,0 -5.2586,4.253 -7.9708,5.4658 -2.7124,1.2128 -8.3484,1.381 -11.2986,-1.6836 -2.9502,-3.065 -1.4474,-7.9484 1.0198,-9.7262 2.4668,-1.7776 6.8084,-1.3836 8.1722,1.99 1.3636,3.3736 -1.8262,4.8384 -1.8262,4.8384 1.1526,1.1158 7.3624,-1.4124 5.077,-5.9758 -2.285,-4.5636 -5.5928,-5.9806 -11.5194,-6.8082 -5.9264,-0.8274 -17.1981,-0.4914 -24.6773,5.3614 -7.4788,5.8528 -14.4392,14.1126 -16.164,30.0008 -1.7244,15.888 4.5548,25.3598 4.5548,25.3598 l 9.229,-10.9138 c -8.2124,2.673 -10.5274,-2.425 -10.5274,-2.425 3.2598,-5.5934 18.6602,-7.0508 18.6602,-7.0508 -0.182,-0.9804 1.5454,-2.9674 1.5454,-2.9674 -10.2766,3.2338 -14.2108,-0.605 -14.2108,-0.605 4.9458,-9.496 15.551,-7.5908 17.6452,-7.6166 2.094,-0.026 0.11,-1.4702 -0.2894,-1.7382 -0.3998,-0.268 -2.586,-0.3612 -6.617,-2.0914 -4.0306,-1.73 -4.178,-5.146 -4.178,-5.146 6.0584,-3.717 13.4578,-0.2432 17.0435,0.788 3.5858,1.0314 6.5618,-1.2058 7.1628,-1.5462 z m 1.8584,10.3402 c -0.166,-1.8272 -1.045,-1.101 -1.045,-1.101 0.736,1.6944 -1.0662,1.9732 -1.0662,1.9732 0,0 2.2772,0.9548 2.1112,-0.8722 z m -13.1231,-5.6526 c 0,0 -2.671,-4.1928 -9.0792,-2.5414 0,0 1.7152,4.6962 9.0792,2.5414 z m 11.5667,-1.5682 c 0,0 -2.522,-1.5194 -3.621,1.4042 -1.0992,2.9238 -0.9004,3.8006 0.221,5.1244 0,0 0.41,-4.9302 3.4,-6.5286 z m 51.9842,30.3914 c 0,0 -1.0802,-6.7298 -5.6878,-12.679 -4.6078,-5.9488 -4.6062,-6.6914 -4.6062,-6.6914 l -13.8918,1.6678 c 0,0 7.9524,4.188 12.6052,18.632 0,0 8.5634,-1.3508 11.5806,-0.9294 z m -39.8396,19.1608 c 0.064,-1.9008 0.2666,-2.5094 0.2666,-2.5094 0,0 0.11,-0.7276 0.7416,-1.276 0.6322,-0.5484 1.4958,-1.1706 2.0346,-1.0952 0.539,0.076 1.4304,0.7302 1.4304,0.7302 0,0 0.8452,0.9668 2.3098,0 1.4646,-0.9626 1.863,0.048 2.956,0.094 1.0932,0.046 2.928,-1.1826 3.437,-1.6424 0.5088,-0.4594 1.341,-0.8736 4.6502,-0.2 3.3092,0.6744 6.9588,0.5472 7.139,-5.0516 0,0 1.8816,-9.6054 -3.3882,-15.5408 -5.2694,-5.9356 -10.7706,-11.797 -21.93,-13.6736 0,0 -1.493,-0.3146 -0.4354,2.1676 1.0578,2.482 0.7426,6.046 0.4154,8.2286 -0.328,2.1824 -0.8228,3.2808 -3.6712,3.2014 -2.8482,-0.08 -8.8072,0.044 -10.2902,2.595 0,0 3.5642,4.1056 4.47,5.3992 0.906,1.2938 1.9478,3.8798 1.606,5.4238 -0.3414,1.5438 -1.6206,2.0024 -4.1598,1.3292 0,0 -2.1282,1.719 -3.221,1.6726 -1.0934,-0.046 -1.9382,-1.0134 -2.1368,-1.8902 -0.198,-0.8766 -0.086,-3.832 0.5262,-9.3702 0,0 -5.9223,5.009 -2.079,16.0508 0,0 10.0154,4.3698 13.584,6.2474 l 2.8766,1.3568 c 0,0 4.008,-0.7296 2.8682,-2.2524 l -13.837,-18.4858 c 0,0 -0.176,3.3712 -1.0084,3.7854 0,0 1.6602,1.3992 2.2018,-0.02 0.5418,-1.41 -1.1934,-3.7654 -1.1934,-3.7654 4.6134,6.1642 9.2368,12.3232 13.837,18.491 z" style="fill:#FACE19;fill-opacity:1;fill-rule:evenodd;stroke:none;stroke-width:0.15494967"/></g>
  </g>
</svg>
