<svg xmlns="http://www.w3.org/2000/svg" width="512" height="512" viewBox="0 0 512 512"><defs><clipPath id="r"><rect width="512" height="512"/></clipPath></defs><g clip-path="url(#r)"><path fill="#0052B4" d="M0 0h512v512H0Z"/><path fill="#FFDA44" d="M167 230v37c0 68 89 89 89 89s89-21 89-89v-37zm9 170h160v48H176ZM112 64h288v48H112Z"/><path fill="#FFDA44" d="M256 146a28 28 0 0 0-28 28h-84a28 28 0 0 0 28 28 28 28 0 0 0 28 28 28 28 0 0 0 28 28h56a28 28 0 0 0 28-28 28 28 0 0 0 28-28 28 28 0 0 0 28-28h-84a28 28 0 0 0-28-28z"/></g></svg>