<svg xmlns="http://www.w3.org/2000/svg" width="512" height="512" viewBox="0 0 512 512">
  <defs>
    <clipPath id="r">
      <rect width="512" height="512"/>
    </clipPath>
    <clipPath id="p">
      <path d="M0 0h102.4v512H0z"/>
    </clipPath>
  </defs>
  <g clip-path="url(#r)">
    <path fill="#CE1720" d="M0 0h512v345H0z"/>
    <path fill="#007C30" d="M0 300.6h512V512H0z"/>
    <g clip-path="url(#p)">
      <path fill="#CE1720" d="M0 0h102.4v512H0z"/>
      <path fill="#FFFFFF" d="M51.2 51.2 25.6-.4l25.6-50.8L76.8-.4zm51.2 0L76.8-.4l25.6-50.8L128-.4zM0 51.2-25.6-.4 0-51.2 25.6-.4zm51.2 102.4L25.6 102l25.6-50.8L76.8 102zm51.2 0L76.8 102l25.6-50.8L128 102zM0 153.6-25.6 102 0 51.2 25.6 102zM51.2 256l-25.6-51.6 25.6-50.8 25.6 50.8zm51.2 0-25.6-51.6 25.6-50.8 25.6 50.8zM0 256l-25.6-51.6L0 153.6l25.6 50.8zm51.2 102.4-25.6-51.6L51.2 256l25.6 50.8z"/>
      <path fill="#FFFFFF" d="m102.4 358.4-25.6-51.6 25.6-50.8 25.6 50.8zM0 358.4l-25.6-51.6L0 256l25.6 50.8zm51.2 102.4-25.6-51.6 25.6-50.8 25.6 50.8zm0 102.4-25.6-51.6 25.6-50.8 25.6 50.8zm51.2-102.4-25.6-51.6 25.6-50.8 25.6 50.8zm0 102.4-25.6-51.6 25.6-50.8 25.6 50.8zM0 460.8l-25.6-51.6L0 358.4l25.6 50.8zm0 102.4-25.6-51.6L0 460.8l25.6 50.8z"/>
    </g>
  <!-- border --><rect width="512" height="512" fill="none" stroke="#cdcfd3" stroke-width="4"/></g>
</svg>
