<svg xmlns="http://www.w3.org/2000/svg" width="512" height="512" viewBox="0 0 512 512" fill="none">
  <defs>
    <clipPath id="tl">
      <polygon points="0,0 512,0 0,512"/>
    </clipPath>
    <clipPath id="br">
      <polygon points="512,0 512,512 0,512"/>
    </clipPath>
  </defs>
  <g clip-path="url(#tl)">
    <path fill="#FFFFFF" d="M128 512V0h256v512z"/><path fill="#006847" d="M0 512V0h144v512z"/><path fill="#CE1126" d="M368 512V0h144v512z"/><path fill="#C8B100" d="M256 277v10h12l10-22z"/><path fill="#006847" d="M171 242a85 85 0 1 0 170 0h11a96 96 0 0 1-192 0zm32 19c15 13 34 21 53 21a78 78 0 0 0 53-21c2-2 6-2 8 0s2 6-1 8a92 92 0 0 1-54 24v17h-12v-17c-20-2-39-10-54-24-3-2-3-6-1-8l4-2z"/><path fill="#30C2DC" d="M297 303c-12 8-26 13-41 13-14 0-28-5-40-13l6-9c20 13 48 13 68 0z"/><path fill="#513625" d="M263 174c19 0 70 8 61 91-11-5-19-15-23-26l-28-16 5 21 35 21-23 11-11-11v11l-18-18-29 7 13-23-4-8c-5-9-3-19 4-26 0-6-5-11-11-11v-11c13 0 26 7 31 18l2 4c1-1 11-23-11-34z"/><path fill="#006847" d="M218 195c-2 0-2 2-2 4 0 0 1 2 3 2 7 0 14 4 16 9 1 3 2 9-5 15-7 7-11 12-9 15l5 1c5 2 14 5 13 17-1 8-8 13-17 13-15 0-33-12-38-40l11-2c4 23 18 31 27 31q4.5 0 6-3c0-2 0-3-6-5-3-1-7-2-10-5-10-12 4-24 11-30 1-1 2-2 1-3 0 0-2-2-5-2-7 0-12-4-14-11-2-6 2-13 8-17z"/><path fill="#C8B100" d="M216 315a8 8 0 1 1 0 16 8 8 0 0 1 0-16m81 0a8 8 0 1 1 0 16 8 8 0 0 1 0-16m-108-21a8 8 0 1 1 0 16 8 8 0 0 1 0-16m135 0a8 8 0 1 1 0 16 8 8 0 0 1 0-16m-152-27a8 8 0 1 1 0 16 8 8 0 0 1 0-16m169 0a8 8 0 1 1 0 16 8 8 0 0 1 0-16m-100-75c2 2 2 6-1 7l-18 9v-11l12-11z"/><path fill="#C8B100" d="M262 299a11 11 0 0 1 0 22h-12a11 11 0 0 1 0-22z"/>
  </g>
  <g clip-path="url(#br)">
    <path fill="#FABD00" d="M512 384H0V128h512z"/><path fill="#AD1519" d="M512 512H0V368h512zm0-368H0V0h512z"/><path fill="#FFFFFF" d="M144 304h-16v-80h16zm128 0h16v-80h-16z"/><path fill="#AD1519" d="M122 248a4 4 0 1 0 0 8h172a4 4 0 1 0 0-8zm0 24a4 4 0 1 0 0 8h28a4 4 0 1 0 0-8zm144 0a4 4 0 1 0 0 8h28a4 4 0 1 0 0-8z"/><path fill="#FFFFFF" d="M256 272h-16.3c10 5.9 16.3 14.4 16.3 24 0 17.7-21.5 32-48 32s-48-14.3-48-32 21.5-32 48-32v-40h48zm-60-104q7.5 0 12 6a16 16 0 0 1 27 5 16 16 0 1 1-10 20 16 16 0 0 1-17-4 16 16 0 0 1-17 4c-2 7-8 11-15 11-9 0-16-7-16-16s7-16 16-16l5 1c2-6 8-11 15-11m-20 18c-4 0-8 4-8 8 0 5 4 8 8 8s8-3 8-7l-4-8zm60 1-4 8c0 4 4 7 8 7 5 0 8-3 8-8 0-4-3-8-8-8zm-40-11c-4 0-8 4-8 8 0 5 4 8 8 8 5 0 8-3 8-8 0-4-3-8-8-8m24 0c-4 0-8 4-8 8 0 5 4 8 8 8 5 0 8-3 8-8 0-4-3-8-8-8"/><path fill="#C8B100" d="M200 160h16v32h-16z"/><path fill="#AD1519" d="M256 296a24 24 0 1 1-48 0v-24h48zm-48-24h-48v-48h48zm24-40a10 10 0 0 1 10 10v12a10 10 0 1 1-20 0v-12a10 10 0 0 1 10-10m-96-40a8 8 0 0 1 8 8v8a8 8 0 0 1-16 0v-8a8 8 0 0 1 8-8m72-8c22 0 40 11 40 24l-8 8h-64l-8-8c0-13 18-24 40-24m72 8a8 8 0 0 1 8 8v8a8 8 0 0 1-16 0v-8a8 8 0 0 1 8-8"/><path fill="#C8B100" d="M144 304a8 8 0 0 1 0 16h-16a8 8 0 0 1 0-16zm144 0a8 8 0 0 1 0 16h-16a8 8 0 0 1 0-16zm-114-24 5-8h10l5 8 5-8h9v24c0 8-3 14-9 19l-5-6-5 10a21 21 0 0 1-10 0l-5-10-5 6c-5-5-9-11-9-19v-24h9zm26-48v8h-8v16h8v8h-32v-8h8v-16h-8v-8zm-56-24a8 8 0 0 1 0 16h-16a8 8 0 0 1 0-16zm96 16h-64v-8h64zm48-16a8 8 0 0 1 0 16h-16a8 8 0 0 1 0-16z"/><path fill="#AD1519" d="M169 272v43q4.6 3 10 4v-47zm20 0v47q5.4-1 10-4v-43z"/><path fill="#FABD00" d="M186 196a6 6 0 1 1 0 12 6 6 0 0 1 0-12m22 0a6 6 0 1 1 0 12 6 6 0 0 1 0-12m22 0a6 6 0 1 1 0 12 6 6 0 0 1 0-12"/><path fill="#005BBF" d="M144 320a8 8 0 0 1 0 16h-16a8 8 0 0 1 0-16zm144 0a8 8 0 0 1 0 16h-16a8 8 0 0 1 0-16zm-80-64a16 16 0 1 1 0 32 16 16 0 0 1 0-32"/>
  </g>
</svg>