<svg width="512" height="512" viewBox="0 0 512 512" fill="none" xmlns="http://www.w3.org/2000/svg">
<g clip-path="url(#clip0_9_45)">
<mask id="mask0_9_45" style="mask-type:luminance" maskUnits="userSpaceOnUse" x="0" y="0" width="512" height="512">
<path d="M256 512C397.385 512 512 397.385 512 256C512 114.615 397.385 0 256 0C114.615 0 0 114.615 0 256C0 397.385 114.615 512 256 512Z" fill="white"/>
</mask>
<g mask="url(#mask0_9_45)">
<path d="M0 0H512V256H0V0Z" fill="#003884"/>
<path d="M0 256H512V512H0V256Z" fill="#FF6600"/>
<path d="M255.5 58H257.5L258.1 63.6L258.6 67.3L259.6 75.7L262.3 96.4L269.1 152.9L269.5 156.9L269.9 160.4C270.9 164.4 272.6 166.2 275.5 169.2C279.767 171.333 284.2 171.667 288.8 170.2C291.2 168.2 291.2 168.2 293.5 165.4L295.1 163.5C300.7 156.433 306.233 149.267 311.7 142L317.2 134.9L337.1 108.4C343.033 100.4 349.1 92.4667 355.3 84.6L356.3 86.6L353.1 94.4L350.5 100.4L348.8 104.4L345.4 112.4L340 125.4L335.5 135.9L327.3 155.2L325.7 159.1L322.6 166.6L319.6 173.5L318.3 176.5L317.2 179.2C316.453 180.897 316.051 182.726 316.016 184.58C315.982 186.434 316.316 188.276 317 190C318.6 193.3 320 194.7 323.2 196.7C329.8 198.5 335.2 196.7 341.2 194.1L343.2 193.2L349.2 190.6L353.4 188.8L365.7 183.4L368.7 182.1L379 177.6L405.7 166.3L408.1 165.3L414.6 162.6L416.6 161.8L421.8 159.7L424.4 158.5C426.5 157.8 426.5 157.8 429.4 158.7L427.4 160.2L412.4 171.6C405.933 176.6 399.433 181.467 392.9 186.2C386.233 191.133 379.633 196.133 373.1 201.2C369.367 204.2 365.6 207.067 361.8 209.8L359.3 211.6L354.6 215C349.748 217.989 345.724 222.15 342.9 227.1C342.5 232.1 342.9 235.3 345.8 239.5C350.5 243.4 354.7 244.1 360.6 244.8L363.3 245.1L372.2 246.1L378.4 246.9L394.6 248.9C400.133 249.5 405.633 250.167 411.1 250.9L443.6 254.7V255.7H325L323 240.4C317.983 222.61 306.404 207.386 290.6 197.8C282.267 193.256 273.118 190.404 263.679 189.409C254.24 188.413 244.697 189.294 235.6 192C218.525 197.886 204.237 209.893 195.5 225.7C193.733 229.411 192.261 233.257 191.1 237.2L190.6 239.1C189 244.7 188.7 249.6 188.2 255.6H69.3V254.6C70.5 254.6 71.6667 254.5 72.8 254.3L121.7 248.4L137.7 246.5L143.8 245.8L152.4 244.8L154.9 244.5C159.9 243.8 163.2 242.8 167.2 239.5C169.9 235.3 170.6 232.1 170 227.1C168.6 224.5 168.6 224.5 167.2 222.4V220.4L165.5 219.7C155.5 214.5 146.7 206.2 137.8 199.4C127.024 191.114 116.156 182.947 105.2 174.9L97.2 168.8C90.3 163.5 90.3 163.5 86.8 161.2L84.5 159.7V157.7C91.1709 159.88 97.7437 162.349 104.2 165.1L107.6 166.6C127.4 174.867 147.167 183.233 166.9 191.7L169.5 192.8L174 194.8C178.8 196.8 183 198.6 188.2 197.1C191.7 195.6 193.5 194.3 195.7 191.2C197.6 185.2 196.7 180.7 194.2 175L193.4 173.2L189.2 163.4L185.8 155.6L179.5 140.5L176.7 134.1C175.767 132.233 174.933 130.367 174.2 128.5L173.2 126.5L171.4 121.8L169.3 116.9L166.2 109.5L161.3 98L159.2 92.8L158.1 90.2L157.1 88.2C156.7 86.5 156.7 86.5 157.7 84.6L164.7 93.3C172.9 103.5 172.9 103.5 172.9 106.5H174.8C178.638 111.953 182.64 117.289 186.8 122.5L199 138.8L217.2 163C220.2 167.4 222.6 169.7 228 171C233.1 171.4 236 170.2 240 166.8C242.2 164.4 242.4 162 242.9 158.8L243.2 156.8L244.2 150.2L244.5 147.8L246.9 128.5L247.6 122.4L249.6 106.4L251.6 90L255.5 58ZM154.8 304.1C161.4 309.4 161.4 309.4 162.4 312.6C165.6 313.4 166.9 313.6 170 312.6L171 309.8H172.9L173.5 307.9C174.8 305.9 174.8 305.9 177 305.1C179.5 305.1 179.5 305.1 181.7 306.6L185.7 310.9L187.1 312.6C186.023 315.227 184.424 317.608 182.4 319.6L180.9 321C179.5 322.1 179.5 322.1 177.6 322.1C178.9 327.5 181.3 329.8 185.2 333.5V335.5H187.2C185.99 338.151 184.215 340.506 182 342.4L180.3 343.9C178.6 344.9 178.6 344.9 176.6 344.8C174.8 344 174.8 344 172.6 341.1C170 338.3 170 338.3 167.4 337C163 337.5 161.4 340 158.6 343.3C156.7 344.9 156.7 344.9 154.8 344.9C152.757 343.888 150.924 342.496 149.4 340.8L147.6 339C146.3 337.3 146.3 337.3 146.3 334.5H148.2V332.5H150.1V330.7H152L153.9 326.9H155.8C154.8 323.4 153.8 322.1 151 319.8C148.2 317.4 148.2 317.4 146.3 312.6L154.8 304.1ZM63.6 305C67.9 306.1 69.3 307.4 72.2 310.7V312.7L77.9 314.5V312.7H80.7L81.4 310.5C82.8 307.7 83.7 306.5 86.4 305.1C89.9 305.5 91.4 307 93.8 309.5L95.6 311.3L96.9 312.7C94.3667 316.7 91.5 320.5 88.3 324.1C89.7 329.1 93.2 332.1 96.9 335.5C95.7587 338.092 94.1675 340.462 92.2 342.5L90.8 344C89.3 345 89.3 345 87.4 344.9C84.4 343.7 82.8 341.6 80.7 339.3V337.4C77.7 337.1 77.7 337.1 74.1 337.4C71.4772 339.561 69.2156 342.127 67.4 345C62.8 344.6 60.9 342.8 57.9 339.3V337.4H56V334.6C57.6 333 57.6 333 59.7 331.4C63.1 328.6 64.7 326.6 65.5 322.2L61.7 320.3V318.4L60 317.7C58 316.5 58 316.5 56.1 313.7L63.6 305ZM267.9 304.1C271.6 307 274.6 309.8 277.4 313.6L274.2 317.2L272.5 319.2C270.7 321.2 270.7 321.2 269.1 322.7C267.9 324 267.9 324 267.9 326.5C269.1 329.4 269.9 329.4 272.6 330.7C274.267 332.5 275.867 334.4 277.4 336.4L267.9 345.9L261.9 340.9L260.3 339.2V337.3C257.1 336.6 255.8 336.3 252.7 337.3L250.7 341.1C249 343.3 249 343.3 247 344.9C243.2 344.9 243.2 344.9 241.3 343.4L239.6 341.4L237.8 339.4C236.5 337.4 236.5 337.4 236.7 335.4C237.9 332.5 239.9 330.8 242.2 328.8H244.2C244.8 326.6 244.8 326.6 245.1 324C243.5 322 243.5 322 241.4 320.2C239.242 318.633 237.577 316.482 236.6 314C236.6 311.7 236.6 311.7 237.7 309.7L239.5 308L241.2 306.2C243.2 305 243.2 305 245.5 305.1C249.2 306.5 251.1 309.1 253.5 312.1C255.5 313.6 255.5 313.6 258.1 313.4C260.9 312.4 260.9 311.5 262.1 308.8C263.967 307.133 265.9 305.567 267.9 304.1ZM357.2 304.1L360.3 306.7L362.1 308.2C365.4 311.2 365.4 311.2 366.7 312.6C366.4 314.7 366.4 314.7 365.7 316.4H363.8L362.8 319.3C361 321.3 361 321.3 359.1 323.1H357.1C359.7 328.1 362.1 331.1 366.7 334.5C366.254 337.347 364.799 339.938 362.6 341.8L360.9 343.6C359.1 344.9 359.1 344.9 355.3 344.9C350.5 339.9 350.5 339.9 350.5 337.3H343L342.4 339C340.976 341.504 338.904 343.576 336.4 345C333.3 345 332.4 343.7 330 341.7C327.8 339.2 327.8 339.2 327.8 337.3H325.9C327.2 334.3 328.8 332.5 331.2 330.3C333.9 327.7 335.3 326 335.4 322.1L333.9 321.5C330.7 319.7 328.5 317.2 325.9 314.5C327.5 310.633 330.033 307.467 333.5 305C336.3 305.1 336.3 305.1 338.3 306V307.9L339.9 308.6C342.4 309.9 343.9 311.6 345.9 313.6C348.883 312.244 351.543 310.267 353.7 307.8L355.7 305.7L357.2 304.1ZM423.7 305C428.3 305.7 430.2 308.7 433.2 312C435.1 313.6 435.1 313.6 437 313.5C439.2 312.5 440.2 311.3 441.7 309.3C443.7 306.9 444.3 306.1 447.3 305.1H449.3L450 306.8C451.4 309.2 452.6 309.5 455 310.8C456 313.6 456 313.6 454.4 316.9C452.966 319.448 450.9 321.584 448.4 323.1C448.9 326.2 449.4 328.9 451.2 331.6C453.2 332.8 453.2 332.8 455 333.6L454 336.4L456 337.4L449.3 344.9C445.3 343.9 444.8 343.5 442.3 340.5C439.3 337.3 439.3 337.3 435.8 337.2C433.619 337.975 431.709 339.364 430.3 341.2H428.4L427.4 344C425.7 344.8 425.7 344.8 423.7 345C421.9 343.7 421.9 343.7 420.2 341.8L418.4 340C417 338.3 417 338.3 416.1 335.4L417.7 333.9L419.8 331.9L421.9 329.9C423.9 327.5 424.6 326.2 424.6 323.1C423 321.1 423 321.1 420.8 319.3C418.6 317.4 418.6 317.4 417 315.5C417.2 312.2 417.7 311 419.8 308.5C421.8 306.9 421.8 306.9 423.7 306.9V305Z" fill="white"/>
</g>
</g>
<defs>
<clipPath id="clip0_9_45">
<rect width="512" height="512" fill="white"/>
</clipPath>
</defs>
</svg>
